G04 #@! TF.GenerationSoftware,KiCad,Pcbnew,7.0.10*
G04 #@! TF.CreationDate,2024-03-15T14:28:46-06:00*
G04 #@! TF.ProjectId,oresat-c3,6f726573-6174-42d6-9333-2e6b69636164,rev?*
G04 #@! TF.SameCoordinates,Original*
G04 #@! TF.FileFunction,Profile,NP*
%FSLAX46Y46*%
G04 Gerber Fmt 4.6, Leading zero omitted, Abs format (unit mm)*
G04 Created by KiCad (PCBNEW 7.0.10) date 2024-03-15 14:28:46*
%MOMM*%
%LPD*%
G01*
G04 APERTURE LIST*
G04 #@! TA.AperFunction,Profile*
%ADD10C,0.050000*%
G04 #@! TD*
G04 APERTURE END LIST*
D10*
X151700000Y-127520000D02*
G75*
G03*
X152450000Y-126770000I0J750000D01*
G01*
X148250000Y-128270000D02*
X148250000Y-131770000D01*
X70080000Y-56380000D02*
G75*
G03*
X69330000Y-55630000I-750000J0D01*
G01*
X69330000Y-132520000D02*
G75*
G03*
X70080000Y-131770000I0J750000D01*
G01*
X65830000Y-133270000D02*
X65830000Y-142020000D01*
X152250000Y-46130000D02*
X152250000Y-54880000D01*
X148250000Y-131770000D02*
G75*
G03*
X149000000Y-132520000I750000J0D01*
G01*
X67030000Y-60630000D02*
G75*
G03*
X66280000Y-61380000I0J-750000D01*
G01*
X65830000Y-112770000D02*
X65830000Y-126770000D01*
X64830000Y-112020000D02*
X65080000Y-112020000D01*
X65530000Y-76130000D02*
X64830000Y-76130000D01*
X66580000Y-132520000D02*
G75*
G03*
X65830000Y-133270000I0J-750000D01*
G01*
X149000000Y-60630000D02*
X151480000Y-60630000D01*
X149000000Y-132520000D02*
X151700000Y-132520000D01*
X66280000Y-46130000D02*
X152250000Y-46130000D01*
X148250000Y-56380000D02*
X148250000Y-59880000D01*
X66280000Y-46130000D02*
X66280000Y-54880000D01*
X70080000Y-128270000D02*
X70080000Y-131770000D01*
X69330000Y-132520000D02*
X66580000Y-132520000D01*
X152230000Y-61380000D02*
G75*
G03*
X151480000Y-60630000I-750000J0D01*
G01*
X149000000Y-55630000D02*
G75*
G03*
X148250000Y-56380000I0J-750000D01*
G01*
X153500000Y-112020000D02*
G75*
G03*
X154250000Y-111270000I0J750000D01*
G01*
X65530000Y-76130000D02*
G75*
G03*
X66280000Y-75380000I0J750000D01*
G01*
X152450000Y-142020000D02*
X65830000Y-142020000D01*
X154250000Y-76880000D02*
X154250000Y-111270000D01*
X66280000Y-61380000D02*
X66280000Y-75380000D01*
X64830000Y-76130000D02*
G75*
G03*
X64080000Y-76880000I0J-750000D01*
G01*
X152230000Y-75380000D02*
G75*
G03*
X152980000Y-76130000I750000J0D01*
G01*
X64080000Y-76880000D02*
X64080000Y-111270000D01*
X149000000Y-127520000D02*
G75*
G03*
X148250000Y-128270000I0J-750000D01*
G01*
X154250000Y-76880000D02*
G75*
G03*
X153500000Y-76130000I-750000J0D01*
G01*
X152980000Y-76130000D02*
X153500000Y-76130000D01*
X66580000Y-127520000D02*
X69330000Y-127520000D01*
X152450000Y-133270000D02*
G75*
G03*
X151700000Y-132520000I-750000J0D01*
G01*
X151700000Y-127520000D02*
X149000000Y-127520000D01*
X152450000Y-112770000D02*
X152450000Y-126770000D01*
X152450000Y-133270000D02*
X152450000Y-142020000D01*
X65830000Y-126770000D02*
G75*
G03*
X66580000Y-127520000I750000J0D01*
G01*
X151500000Y-55630000D02*
G75*
G03*
X152250000Y-54880000I0J750000D01*
G01*
X153200000Y-112020000D02*
G75*
G03*
X152450000Y-112770000I0J-750000D01*
G01*
X66280000Y-54880000D02*
G75*
G03*
X67030000Y-55630000I750000J0D01*
G01*
X153500000Y-112020000D02*
X153200000Y-112020000D01*
X70080000Y-56380000D02*
X70080000Y-59880000D01*
X69330000Y-60630000D02*
X67030000Y-60630000D01*
X152230000Y-61380000D02*
X152230000Y-75380000D01*
X151500000Y-55630000D02*
X149000000Y-55630000D01*
X64080000Y-111270000D02*
G75*
G03*
X64830000Y-112020000I750000J0D01*
G01*
X67030000Y-55630000D02*
X69330000Y-55630000D01*
X69330000Y-60630000D02*
G75*
G03*
X70080000Y-59880000I0J750000D01*
G01*
X65830000Y-112770000D02*
G75*
G03*
X65080000Y-112020000I-750000J0D01*
G01*
X70080000Y-128270000D02*
G75*
G03*
X69330000Y-127520000I-750000J0D01*
G01*
X148250334Y-59879666D02*
G75*
G03*
X149000334Y-60629666I749966J-34D01*
G01*
X55378376Y-40789740D02*
G75*
G03*
X53378376Y-40789740I-1000000J0D01*
G01*
X53378376Y-40789740D02*
G75*
G03*
X55378376Y-40789740I1000000J0D01*
G01*
X52878376Y-40789740D02*
X55878376Y-40789740D01*
X54378376Y-39289740D02*
X54378376Y-42289740D01*
M02*
