G04 #@! TF.GenerationSoftware,KiCad,Pcbnew,7.0.10*
G04 #@! TF.CreationDate,2024-03-15T14:28:46-06:00*
G04 #@! TF.ProjectId,oresat-c3,6f726573-6174-42d6-9333-2e6b69636164,rev?*
G04 #@! TF.SameCoordinates,Original*
G04 #@! TF.FileFunction,Soldermask,Bot*
G04 #@! TF.FilePolarity,Negative*
%FSLAX46Y46*%
G04 Gerber Fmt 4.6, Leading zero omitted, Abs format (unit mm)*
G04 Created by KiCad (PCBNEW 7.0.10) date 2024-03-15 14:28:46*
%MOMM*%
%LPD*%
G01*
G04 APERTURE LIST*
%ADD10C,0.262132*%
%ADD11R,1.700000X1.700000*%
%ADD12O,1.700000X1.700000*%
%ADD13C,1.100000*%
%ADD14C,1.000000*%
G04 APERTURE END LIST*
D10*
X138581066Y-74550000D02*
G75*
G03*
X138318934Y-74550000I-131066J0D01*
G01*
X138318934Y-74550000D02*
G75*
G03*
X138581066Y-74550000I131066J0D01*
G01*
D11*
X75330000Y-82280000D03*
D12*
X77870000Y-82280000D03*
D11*
X78250000Y-48350000D03*
D12*
X78250000Y-50890000D03*
X80790000Y-48350000D03*
X80790000Y-50890000D03*
X83330000Y-48350000D03*
X83330000Y-50890000D03*
X85870000Y-48350000D03*
X85870000Y-50890000D03*
X88410000Y-48350000D03*
X88410000Y-50890000D03*
X90950000Y-48350000D03*
X90950000Y-50890000D03*
X93490000Y-48350000D03*
X93490000Y-50890000D03*
X96030000Y-48350000D03*
X96030000Y-50890000D03*
X98570000Y-48350000D03*
X98570000Y-50890000D03*
X101110000Y-48350000D03*
X101110000Y-50890000D03*
X103650000Y-48350000D03*
X103650000Y-50890000D03*
X106190000Y-48350000D03*
X106190000Y-50890000D03*
X108730000Y-48350000D03*
X108730000Y-50890000D03*
X111270000Y-48350000D03*
X111270000Y-50890000D03*
X113810000Y-48350000D03*
X113810000Y-50890000D03*
X116350000Y-48350000D03*
X116350000Y-50890000D03*
X118890000Y-48350000D03*
X118890000Y-50890000D03*
X121430000Y-48350000D03*
X121430000Y-50890000D03*
X123970000Y-48350000D03*
X123970000Y-50890000D03*
X126510000Y-48350000D03*
X126510000Y-50890000D03*
X129050000Y-48350000D03*
X129050000Y-50890000D03*
X131590000Y-48350000D03*
X131590000Y-50890000D03*
X134130000Y-48350000D03*
X134130000Y-50890000D03*
X136670000Y-48350000D03*
X136670000Y-50890000D03*
X139210000Y-48350000D03*
X139210000Y-50890000D03*
X141750000Y-48350000D03*
X141750000Y-50890000D03*
D11*
X78260000Y-54550000D03*
D12*
X78260000Y-57090000D03*
X80800000Y-54550000D03*
X80800000Y-57090000D03*
X83340000Y-54550000D03*
X83340000Y-57090000D03*
X85880000Y-54550000D03*
X85880000Y-57090000D03*
X88420000Y-54550000D03*
X88420000Y-57090000D03*
X90960000Y-54550000D03*
X90960000Y-57090000D03*
X93500000Y-54550000D03*
X93500000Y-57090000D03*
X96040000Y-54550000D03*
X96040000Y-57090000D03*
X98580000Y-54550000D03*
X98580000Y-57090000D03*
X101120000Y-54550000D03*
X101120000Y-57090000D03*
X103660000Y-54550000D03*
X103660000Y-57090000D03*
X106200000Y-54550000D03*
X106200000Y-57090000D03*
X108740000Y-54550000D03*
X108740000Y-57090000D03*
X111280000Y-54550000D03*
X111280000Y-57090000D03*
X113820000Y-54550000D03*
X113820000Y-57090000D03*
X116360000Y-54550000D03*
X116360000Y-57090000D03*
X118900000Y-54550000D03*
X118900000Y-57090000D03*
X121440000Y-54550000D03*
X121440000Y-57090000D03*
X123980000Y-54550000D03*
X123980000Y-57090000D03*
X126520000Y-54550000D03*
X126520000Y-57090000D03*
X129060000Y-54550000D03*
X129060000Y-57090000D03*
X131600000Y-54550000D03*
X131600000Y-57090000D03*
X134140000Y-54550000D03*
X134140000Y-57090000D03*
X136680000Y-54550000D03*
X136680000Y-57090000D03*
X139220000Y-54550000D03*
X139220000Y-57090000D03*
X141760000Y-54550000D03*
X141760000Y-57090000D03*
D13*
X85500000Y-84100000D03*
X116100000Y-125800000D03*
X132762500Y-66200000D03*
X114200000Y-117250000D03*
X110600000Y-93600000D03*
X87800000Y-101300000D03*
X143762500Y-71587500D03*
X107500000Y-115650000D03*
X87700000Y-98700000D03*
X142987500Y-63387500D03*
X109800000Y-116000000D03*
X128225000Y-65062500D03*
X111450000Y-92100000D03*
X146787500Y-89000000D03*
X146880000Y-74000000D03*
X137662500Y-71987500D03*
X85400000Y-98100000D03*
D14*
X88700000Y-87700000D03*
X97600000Y-101000000D03*
X107800000Y-91500000D03*
D13*
X102400000Y-82200000D03*
D14*
X107200000Y-98500000D03*
X96400000Y-89000000D03*
X90000000Y-91500000D03*
X93200000Y-98600000D03*
X109450000Y-90250000D03*
X106500000Y-89000000D03*
X102100000Y-104800000D03*
X104000000Y-89000000D03*
X88700000Y-91500000D03*
X97600000Y-102300000D03*
X96300000Y-100400000D03*
X93200000Y-89600000D03*
X106600000Y-90200000D03*
X105300000Y-89000000D03*
X92600000Y-92800000D03*
X91200000Y-100400000D03*
D13*
X99500000Y-80200000D03*
D14*
X105900000Y-97200000D03*
X102700000Y-102300000D03*
X106500000Y-91500000D03*
X108700000Y-108400000D03*
X99000000Y-87700000D03*
X92600000Y-91500000D03*
X96400000Y-104200000D03*
X105250000Y-91550000D03*
X89800000Y-100900000D03*
X107800000Y-95300000D03*
X104600000Y-98500000D03*
X105300000Y-90200000D03*
X90000000Y-89000000D03*
X93800000Y-100400000D03*
X104000000Y-91500000D03*
X107200000Y-99700000D03*
X107800000Y-89600000D03*
X96400000Y-102950000D03*
X104600000Y-97250000D03*
X106500000Y-92800000D03*
X105200000Y-92800000D03*
X88700000Y-89000000D03*
X104600000Y-99800000D03*
X105900000Y-98500000D03*
X100200000Y-100400000D03*
X92500000Y-101700000D03*
X105900000Y-99800000D03*
D13*
X104500000Y-82200000D03*
D14*
X104000000Y-90200000D03*
X90000000Y-87700000D03*
X104200000Y-102000000D03*
X92500000Y-100400000D03*
X96400000Y-105450000D03*
X108400000Y-98500000D03*
X104600000Y-96000000D03*
M02*
