G04 #@! TF.GenerationSoftware,KiCad,Pcbnew,7.0.10*
G04 #@! TF.CreationDate,2024-03-15T14:28:46-06:00*
G04 #@! TF.ProjectId,oresat-c3,6f726573-6174-42d6-9333-2e6b69636164,rev?*
G04 #@! TF.SameCoordinates,Original*
G04 #@! TF.FileFunction,Legend,Bot*
G04 #@! TF.FilePolarity,Positive*
%FSLAX46Y46*%
G04 Gerber Fmt 4.6, Leading zero omitted, Abs format (unit mm)*
G04 Created by KiCad (PCBNEW 7.0.10) date 2024-03-15 14:28:46*
%MOMM*%
%LPD*%
G01*
G04 APERTURE LIST*
%ADD10C,0.125000*%
%ADD11C,0.127000*%
G04 APERTURE END LIST*
D10*
X88169046Y-86524809D02*
X87883332Y-86524809D01*
X88026189Y-87024809D02*
X88026189Y-86524809D01*
X87716666Y-87024809D02*
X87716666Y-86524809D01*
X87716666Y-86524809D02*
X87526190Y-86524809D01*
X87526190Y-86524809D02*
X87478571Y-86548619D01*
X87478571Y-86548619D02*
X87454761Y-86572428D01*
X87454761Y-86572428D02*
X87430952Y-86620047D01*
X87430952Y-86620047D02*
X87430952Y-86691476D01*
X87430952Y-86691476D02*
X87454761Y-86739095D01*
X87454761Y-86739095D02*
X87478571Y-86762904D01*
X87478571Y-86762904D02*
X87526190Y-86786714D01*
X87526190Y-86786714D02*
X87716666Y-86786714D01*
X87192856Y-87024809D02*
X87097618Y-87024809D01*
X87097618Y-87024809D02*
X87049999Y-87001000D01*
X87049999Y-87001000D02*
X87026190Y-86977190D01*
X87026190Y-86977190D02*
X86978571Y-86905761D01*
X86978571Y-86905761D02*
X86954761Y-86810523D01*
X86954761Y-86810523D02*
X86954761Y-86620047D01*
X86954761Y-86620047D02*
X86978571Y-86572428D01*
X86978571Y-86572428D02*
X87002380Y-86548619D01*
X87002380Y-86548619D02*
X87049999Y-86524809D01*
X87049999Y-86524809D02*
X87145237Y-86524809D01*
X87145237Y-86524809D02*
X87192856Y-86548619D01*
X87192856Y-86548619D02*
X87216666Y-86572428D01*
X87216666Y-86572428D02*
X87240475Y-86620047D01*
X87240475Y-86620047D02*
X87240475Y-86739095D01*
X87240475Y-86739095D02*
X87216666Y-86786714D01*
X87216666Y-86786714D02*
X87192856Y-86810523D01*
X87192856Y-86810523D02*
X87145237Y-86834333D01*
X87145237Y-86834333D02*
X87049999Y-86834333D01*
X87049999Y-86834333D02*
X87002380Y-86810523D01*
X87002380Y-86810523D02*
X86978571Y-86786714D01*
X86978571Y-86786714D02*
X86954761Y-86739095D01*
X86478571Y-87024809D02*
X86764285Y-87024809D01*
X86621428Y-87024809D02*
X86621428Y-86524809D01*
X86621428Y-86524809D02*
X86669047Y-86596238D01*
X86669047Y-86596238D02*
X86716666Y-86643857D01*
X86716666Y-86643857D02*
X86764285Y-86667666D01*
X97474809Y-98530953D02*
X97474809Y-98816667D01*
X97974809Y-98673810D02*
X97474809Y-98673810D01*
X97974809Y-98983333D02*
X97474809Y-98983333D01*
X97474809Y-98983333D02*
X97474809Y-99173809D01*
X97474809Y-99173809D02*
X97498619Y-99221428D01*
X97498619Y-99221428D02*
X97522428Y-99245238D01*
X97522428Y-99245238D02*
X97570047Y-99269047D01*
X97570047Y-99269047D02*
X97641476Y-99269047D01*
X97641476Y-99269047D02*
X97689095Y-99245238D01*
X97689095Y-99245238D02*
X97712904Y-99221428D01*
X97712904Y-99221428D02*
X97736714Y-99173809D01*
X97736714Y-99173809D02*
X97736714Y-98983333D01*
X97474809Y-99435714D02*
X97474809Y-99769047D01*
X97474809Y-99769047D02*
X97974809Y-99554762D01*
X97474809Y-99911904D02*
X97474809Y-100245237D01*
X97474809Y-100245237D02*
X97974809Y-100030952D01*
X110757141Y-91074809D02*
X110471427Y-91074809D01*
X110614284Y-91574809D02*
X110614284Y-91074809D01*
X110304761Y-91574809D02*
X110304761Y-91074809D01*
X110304761Y-91074809D02*
X110114285Y-91074809D01*
X110114285Y-91074809D02*
X110066666Y-91098619D01*
X110066666Y-91098619D02*
X110042856Y-91122428D01*
X110042856Y-91122428D02*
X110019047Y-91170047D01*
X110019047Y-91170047D02*
X110019047Y-91241476D01*
X110019047Y-91241476D02*
X110042856Y-91289095D01*
X110042856Y-91289095D02*
X110066666Y-91312904D01*
X110066666Y-91312904D02*
X110114285Y-91336714D01*
X110114285Y-91336714D02*
X110304761Y-91336714D01*
X109542856Y-91574809D02*
X109828570Y-91574809D01*
X109685713Y-91574809D02*
X109685713Y-91074809D01*
X109685713Y-91074809D02*
X109733332Y-91146238D01*
X109733332Y-91146238D02*
X109780951Y-91193857D01*
X109780951Y-91193857D02*
X109828570Y-91217666D01*
X109352380Y-91122428D02*
X109328571Y-91098619D01*
X109328571Y-91098619D02*
X109280952Y-91074809D01*
X109280952Y-91074809D02*
X109161904Y-91074809D01*
X109161904Y-91074809D02*
X109114285Y-91098619D01*
X109114285Y-91098619D02*
X109090476Y-91122428D01*
X109090476Y-91122428D02*
X109066666Y-91170047D01*
X109066666Y-91170047D02*
X109066666Y-91217666D01*
X109066666Y-91217666D02*
X109090476Y-91289095D01*
X109090476Y-91289095D02*
X109376190Y-91574809D01*
X109376190Y-91574809D02*
X109066666Y-91574809D01*
X108590476Y-91574809D02*
X108876190Y-91574809D01*
X108733333Y-91574809D02*
X108733333Y-91074809D01*
X108733333Y-91074809D02*
X108780952Y-91146238D01*
X108780952Y-91146238D02*
X108828571Y-91193857D01*
X108828571Y-91193857D02*
X108876190Y-91217666D01*
X103269046Y-80424809D02*
X102983332Y-80424809D01*
X103126189Y-80924809D02*
X103126189Y-80424809D01*
X102816666Y-80924809D02*
X102816666Y-80424809D01*
X102816666Y-80424809D02*
X102626190Y-80424809D01*
X102626190Y-80424809D02*
X102578571Y-80448619D01*
X102578571Y-80448619D02*
X102554761Y-80472428D01*
X102554761Y-80472428D02*
X102530952Y-80520047D01*
X102530952Y-80520047D02*
X102530952Y-80591476D01*
X102530952Y-80591476D02*
X102554761Y-80639095D01*
X102554761Y-80639095D02*
X102578571Y-80662904D01*
X102578571Y-80662904D02*
X102626190Y-80686714D01*
X102626190Y-80686714D02*
X102816666Y-80686714D01*
X102364285Y-80424809D02*
X102030952Y-80424809D01*
X102030952Y-80424809D02*
X102245237Y-80924809D01*
X101888095Y-80424809D02*
X101578571Y-80424809D01*
X101578571Y-80424809D02*
X101745238Y-80615285D01*
X101745238Y-80615285D02*
X101673809Y-80615285D01*
X101673809Y-80615285D02*
X101626190Y-80639095D01*
X101626190Y-80639095D02*
X101602381Y-80662904D01*
X101602381Y-80662904D02*
X101578571Y-80710523D01*
X101578571Y-80710523D02*
X101578571Y-80829571D01*
X101578571Y-80829571D02*
X101602381Y-80877190D01*
X101602381Y-80877190D02*
X101626190Y-80901000D01*
X101626190Y-80901000D02*
X101673809Y-80924809D01*
X101673809Y-80924809D02*
X101816666Y-80924809D01*
X101816666Y-80924809D02*
X101864285Y-80901000D01*
X101864285Y-80901000D02*
X101888095Y-80877190D01*
X107524809Y-96130953D02*
X107524809Y-96416667D01*
X108024809Y-96273810D02*
X107524809Y-96273810D01*
X108024809Y-96583333D02*
X107524809Y-96583333D01*
X107524809Y-96583333D02*
X107524809Y-96773809D01*
X107524809Y-96773809D02*
X107548619Y-96821428D01*
X107548619Y-96821428D02*
X107572428Y-96845238D01*
X107572428Y-96845238D02*
X107620047Y-96869047D01*
X107620047Y-96869047D02*
X107691476Y-96869047D01*
X107691476Y-96869047D02*
X107739095Y-96845238D01*
X107739095Y-96845238D02*
X107762904Y-96821428D01*
X107762904Y-96821428D02*
X107786714Y-96773809D01*
X107786714Y-96773809D02*
X107786714Y-96583333D01*
X108024809Y-97107143D02*
X108024809Y-97202381D01*
X108024809Y-97202381D02*
X108001000Y-97250000D01*
X108001000Y-97250000D02*
X107977190Y-97273809D01*
X107977190Y-97273809D02*
X107905761Y-97321428D01*
X107905761Y-97321428D02*
X107810523Y-97345238D01*
X107810523Y-97345238D02*
X107620047Y-97345238D01*
X107620047Y-97345238D02*
X107572428Y-97321428D01*
X107572428Y-97321428D02*
X107548619Y-97297619D01*
X107548619Y-97297619D02*
X107524809Y-97250000D01*
X107524809Y-97250000D02*
X107524809Y-97154762D01*
X107524809Y-97154762D02*
X107548619Y-97107143D01*
X107548619Y-97107143D02*
X107572428Y-97083333D01*
X107572428Y-97083333D02*
X107620047Y-97059524D01*
X107620047Y-97059524D02*
X107739095Y-97059524D01*
X107739095Y-97059524D02*
X107786714Y-97083333D01*
X107786714Y-97083333D02*
X107810523Y-97107143D01*
X107810523Y-97107143D02*
X107834333Y-97154762D01*
X107834333Y-97154762D02*
X107834333Y-97250000D01*
X107834333Y-97250000D02*
X107810523Y-97297619D01*
X107810523Y-97297619D02*
X107786714Y-97321428D01*
X107786714Y-97321428D02*
X107739095Y-97345238D01*
X107739095Y-97630952D02*
X107715285Y-97583333D01*
X107715285Y-97583333D02*
X107691476Y-97559523D01*
X107691476Y-97559523D02*
X107643857Y-97535714D01*
X107643857Y-97535714D02*
X107620047Y-97535714D01*
X107620047Y-97535714D02*
X107572428Y-97559523D01*
X107572428Y-97559523D02*
X107548619Y-97583333D01*
X107548619Y-97583333D02*
X107524809Y-97630952D01*
X107524809Y-97630952D02*
X107524809Y-97726190D01*
X107524809Y-97726190D02*
X107548619Y-97773809D01*
X107548619Y-97773809D02*
X107572428Y-97797618D01*
X107572428Y-97797618D02*
X107620047Y-97821428D01*
X107620047Y-97821428D02*
X107643857Y-97821428D01*
X107643857Y-97821428D02*
X107691476Y-97797618D01*
X107691476Y-97797618D02*
X107715285Y-97773809D01*
X107715285Y-97773809D02*
X107739095Y-97726190D01*
X107739095Y-97726190D02*
X107739095Y-97630952D01*
X107739095Y-97630952D02*
X107762904Y-97583333D01*
X107762904Y-97583333D02*
X107786714Y-97559523D01*
X107786714Y-97559523D02*
X107834333Y-97535714D01*
X107834333Y-97535714D02*
X107929571Y-97535714D01*
X107929571Y-97535714D02*
X107977190Y-97559523D01*
X107977190Y-97559523D02*
X108001000Y-97583333D01*
X108001000Y-97583333D02*
X108024809Y-97630952D01*
X108024809Y-97630952D02*
X108024809Y-97726190D01*
X108024809Y-97726190D02*
X108001000Y-97773809D01*
X108001000Y-97773809D02*
X107977190Y-97797618D01*
X107977190Y-97797618D02*
X107929571Y-97821428D01*
X107929571Y-97821428D02*
X107834333Y-97821428D01*
X107834333Y-97821428D02*
X107786714Y-97797618D01*
X107786714Y-97797618D02*
X107762904Y-97773809D01*
X107762904Y-97773809D02*
X107739095Y-97726190D01*
X98869046Y-88774809D02*
X98583332Y-88774809D01*
X98726189Y-89274809D02*
X98726189Y-88774809D01*
X98416666Y-89274809D02*
X98416666Y-88774809D01*
X98416666Y-88774809D02*
X98226190Y-88774809D01*
X98226190Y-88774809D02*
X98178571Y-88798619D01*
X98178571Y-88798619D02*
X98154761Y-88822428D01*
X98154761Y-88822428D02*
X98130952Y-88870047D01*
X98130952Y-88870047D02*
X98130952Y-88941476D01*
X98130952Y-88941476D02*
X98154761Y-88989095D01*
X98154761Y-88989095D02*
X98178571Y-89012904D01*
X98178571Y-89012904D02*
X98226190Y-89036714D01*
X98226190Y-89036714D02*
X98416666Y-89036714D01*
X97702380Y-88774809D02*
X97797618Y-88774809D01*
X97797618Y-88774809D02*
X97845237Y-88798619D01*
X97845237Y-88798619D02*
X97869047Y-88822428D01*
X97869047Y-88822428D02*
X97916666Y-88893857D01*
X97916666Y-88893857D02*
X97940475Y-88989095D01*
X97940475Y-88989095D02*
X97940475Y-89179571D01*
X97940475Y-89179571D02*
X97916666Y-89227190D01*
X97916666Y-89227190D02*
X97892856Y-89251000D01*
X97892856Y-89251000D02*
X97845237Y-89274809D01*
X97845237Y-89274809D02*
X97749999Y-89274809D01*
X97749999Y-89274809D02*
X97702380Y-89251000D01*
X97702380Y-89251000D02*
X97678571Y-89227190D01*
X97678571Y-89227190D02*
X97654761Y-89179571D01*
X97654761Y-89179571D02*
X97654761Y-89060523D01*
X97654761Y-89060523D02*
X97678571Y-89012904D01*
X97678571Y-89012904D02*
X97702380Y-88989095D01*
X97702380Y-88989095D02*
X97749999Y-88965285D01*
X97749999Y-88965285D02*
X97845237Y-88965285D01*
X97845237Y-88965285D02*
X97892856Y-88989095D01*
X97892856Y-88989095D02*
X97916666Y-89012904D01*
X97916666Y-89012904D02*
X97940475Y-89060523D01*
X97416666Y-89274809D02*
X97321428Y-89274809D01*
X97321428Y-89274809D02*
X97273809Y-89251000D01*
X97273809Y-89251000D02*
X97250000Y-89227190D01*
X97250000Y-89227190D02*
X97202381Y-89155761D01*
X97202381Y-89155761D02*
X97178571Y-89060523D01*
X97178571Y-89060523D02*
X97178571Y-88870047D01*
X97178571Y-88870047D02*
X97202381Y-88822428D01*
X97202381Y-88822428D02*
X97226190Y-88798619D01*
X97226190Y-88798619D02*
X97273809Y-88774809D01*
X97273809Y-88774809D02*
X97369047Y-88774809D01*
X97369047Y-88774809D02*
X97416666Y-88798619D01*
X97416666Y-88798619D02*
X97440476Y-88822428D01*
X97440476Y-88822428D02*
X97464285Y-88870047D01*
X97464285Y-88870047D02*
X97464285Y-88989095D01*
X97464285Y-88989095D02*
X97440476Y-89036714D01*
X97440476Y-89036714D02*
X97416666Y-89060523D01*
X97416666Y-89060523D02*
X97369047Y-89084333D01*
X97369047Y-89084333D02*
X97273809Y-89084333D01*
X97273809Y-89084333D02*
X97226190Y-89060523D01*
X97226190Y-89060523D02*
X97202381Y-89036714D01*
X97202381Y-89036714D02*
X97178571Y-88989095D01*
X89724809Y-92342858D02*
X89724809Y-92628572D01*
X90224809Y-92485715D02*
X89724809Y-92485715D01*
X90224809Y-92795238D02*
X89724809Y-92795238D01*
X89724809Y-92795238D02*
X89724809Y-92985714D01*
X89724809Y-92985714D02*
X89748619Y-93033333D01*
X89748619Y-93033333D02*
X89772428Y-93057143D01*
X89772428Y-93057143D02*
X89820047Y-93080952D01*
X89820047Y-93080952D02*
X89891476Y-93080952D01*
X89891476Y-93080952D02*
X89939095Y-93057143D01*
X89939095Y-93057143D02*
X89962904Y-93033333D01*
X89962904Y-93033333D02*
X89986714Y-92985714D01*
X89986714Y-92985714D02*
X89986714Y-92795238D01*
X90224809Y-93557143D02*
X90224809Y-93271429D01*
X90224809Y-93414286D02*
X89724809Y-93414286D01*
X89724809Y-93414286D02*
X89796238Y-93366667D01*
X89796238Y-93366667D02*
X89843857Y-93319048D01*
X89843857Y-93319048D02*
X89867666Y-93271429D01*
X89772428Y-93747619D02*
X89748619Y-93771428D01*
X89748619Y-93771428D02*
X89724809Y-93819047D01*
X89724809Y-93819047D02*
X89724809Y-93938095D01*
X89724809Y-93938095D02*
X89748619Y-93985714D01*
X89748619Y-93985714D02*
X89772428Y-94009523D01*
X89772428Y-94009523D02*
X89820047Y-94033333D01*
X89820047Y-94033333D02*
X89867666Y-94033333D01*
X89867666Y-94033333D02*
X89939095Y-94009523D01*
X89939095Y-94009523D02*
X90224809Y-93723809D01*
X90224809Y-93723809D02*
X90224809Y-94033333D01*
X89724809Y-94485713D02*
X89724809Y-94247618D01*
X89724809Y-94247618D02*
X89962904Y-94223809D01*
X89962904Y-94223809D02*
X89939095Y-94247618D01*
X89939095Y-94247618D02*
X89915285Y-94295237D01*
X89915285Y-94295237D02*
X89915285Y-94414285D01*
X89915285Y-94414285D02*
X89939095Y-94461904D01*
X89939095Y-94461904D02*
X89962904Y-94485713D01*
X89962904Y-94485713D02*
X90010523Y-94509523D01*
X90010523Y-94509523D02*
X90129571Y-94509523D01*
X90129571Y-94509523D02*
X90177190Y-94485713D01*
X90177190Y-94485713D02*
X90201000Y-94461904D01*
X90201000Y-94461904D02*
X90224809Y-94414285D01*
X90224809Y-94414285D02*
X90224809Y-94295237D01*
X90224809Y-94295237D02*
X90201000Y-94247618D01*
X90201000Y-94247618D02*
X90177190Y-94223809D01*
X96407141Y-97874809D02*
X96121427Y-97874809D01*
X96264284Y-98374809D02*
X96264284Y-97874809D01*
X95954761Y-98374809D02*
X95954761Y-97874809D01*
X95954761Y-97874809D02*
X95764285Y-97874809D01*
X95764285Y-97874809D02*
X95716666Y-97898619D01*
X95716666Y-97898619D02*
X95692856Y-97922428D01*
X95692856Y-97922428D02*
X95669047Y-97970047D01*
X95669047Y-97970047D02*
X95669047Y-98041476D01*
X95669047Y-98041476D02*
X95692856Y-98089095D01*
X95692856Y-98089095D02*
X95716666Y-98112904D01*
X95716666Y-98112904D02*
X95764285Y-98136714D01*
X95764285Y-98136714D02*
X95954761Y-98136714D01*
X95192856Y-98374809D02*
X95478570Y-98374809D01*
X95335713Y-98374809D02*
X95335713Y-97874809D01*
X95335713Y-97874809D02*
X95383332Y-97946238D01*
X95383332Y-97946238D02*
X95430951Y-97993857D01*
X95430951Y-97993857D02*
X95478570Y-98017666D01*
X95026190Y-97874809D02*
X94716666Y-97874809D01*
X94716666Y-97874809D02*
X94883333Y-98065285D01*
X94883333Y-98065285D02*
X94811904Y-98065285D01*
X94811904Y-98065285D02*
X94764285Y-98089095D01*
X94764285Y-98089095D02*
X94740476Y-98112904D01*
X94740476Y-98112904D02*
X94716666Y-98160523D01*
X94716666Y-98160523D02*
X94716666Y-98279571D01*
X94716666Y-98279571D02*
X94740476Y-98327190D01*
X94740476Y-98327190D02*
X94764285Y-98351000D01*
X94764285Y-98351000D02*
X94811904Y-98374809D01*
X94811904Y-98374809D02*
X94954761Y-98374809D01*
X94954761Y-98374809D02*
X95002380Y-98351000D01*
X95002380Y-98351000D02*
X95026190Y-98327190D01*
X94240476Y-98374809D02*
X94526190Y-98374809D01*
X94383333Y-98374809D02*
X94383333Y-97874809D01*
X94383333Y-97874809D02*
X94430952Y-97946238D01*
X94430952Y-97946238D02*
X94478571Y-97993857D01*
X94478571Y-97993857D02*
X94526190Y-98017666D01*
X112407141Y-89974809D02*
X112121427Y-89974809D01*
X112264284Y-90474809D02*
X112264284Y-89974809D01*
X111954761Y-90474809D02*
X111954761Y-89974809D01*
X111954761Y-89974809D02*
X111764285Y-89974809D01*
X111764285Y-89974809D02*
X111716666Y-89998619D01*
X111716666Y-89998619D02*
X111692856Y-90022428D01*
X111692856Y-90022428D02*
X111669047Y-90070047D01*
X111669047Y-90070047D02*
X111669047Y-90141476D01*
X111669047Y-90141476D02*
X111692856Y-90189095D01*
X111692856Y-90189095D02*
X111716666Y-90212904D01*
X111716666Y-90212904D02*
X111764285Y-90236714D01*
X111764285Y-90236714D02*
X111954761Y-90236714D01*
X111192856Y-90474809D02*
X111478570Y-90474809D01*
X111335713Y-90474809D02*
X111335713Y-89974809D01*
X111335713Y-89974809D02*
X111383332Y-90046238D01*
X111383332Y-90046238D02*
X111430951Y-90093857D01*
X111430951Y-90093857D02*
X111478570Y-90117666D01*
X110716666Y-90474809D02*
X111002380Y-90474809D01*
X110859523Y-90474809D02*
X110859523Y-89974809D01*
X110859523Y-89974809D02*
X110907142Y-90046238D01*
X110907142Y-90046238D02*
X110954761Y-90093857D01*
X110954761Y-90093857D02*
X111002380Y-90117666D01*
X110264286Y-89974809D02*
X110502381Y-89974809D01*
X110502381Y-89974809D02*
X110526190Y-90212904D01*
X110526190Y-90212904D02*
X110502381Y-90189095D01*
X110502381Y-90189095D02*
X110454762Y-90165285D01*
X110454762Y-90165285D02*
X110335714Y-90165285D01*
X110335714Y-90165285D02*
X110288095Y-90189095D01*
X110288095Y-90189095D02*
X110264286Y-90212904D01*
X110264286Y-90212904D02*
X110240476Y-90260523D01*
X110240476Y-90260523D02*
X110240476Y-90379571D01*
X110240476Y-90379571D02*
X110264286Y-90427190D01*
X110264286Y-90427190D02*
X110288095Y-90451000D01*
X110288095Y-90451000D02*
X110335714Y-90474809D01*
X110335714Y-90474809D02*
X110454762Y-90474809D01*
X110454762Y-90474809D02*
X110502381Y-90451000D01*
X110502381Y-90451000D02*
X110526190Y-90427190D01*
X106124809Y-85792858D02*
X106124809Y-86078572D01*
X106624809Y-85935715D02*
X106124809Y-85935715D01*
X106624809Y-86245238D02*
X106124809Y-86245238D01*
X106124809Y-86245238D02*
X106124809Y-86435714D01*
X106124809Y-86435714D02*
X106148619Y-86483333D01*
X106148619Y-86483333D02*
X106172428Y-86507143D01*
X106172428Y-86507143D02*
X106220047Y-86530952D01*
X106220047Y-86530952D02*
X106291476Y-86530952D01*
X106291476Y-86530952D02*
X106339095Y-86507143D01*
X106339095Y-86507143D02*
X106362904Y-86483333D01*
X106362904Y-86483333D02*
X106386714Y-86435714D01*
X106386714Y-86435714D02*
X106386714Y-86245238D01*
X106624809Y-87007143D02*
X106624809Y-86721429D01*
X106624809Y-86864286D02*
X106124809Y-86864286D01*
X106124809Y-86864286D02*
X106196238Y-86816667D01*
X106196238Y-86816667D02*
X106243857Y-86769048D01*
X106243857Y-86769048D02*
X106267666Y-86721429D01*
X106624809Y-87483333D02*
X106624809Y-87197619D01*
X106624809Y-87340476D02*
X106124809Y-87340476D01*
X106124809Y-87340476D02*
X106196238Y-87292857D01*
X106196238Y-87292857D02*
X106243857Y-87245238D01*
X106243857Y-87245238D02*
X106267666Y-87197619D01*
X106339095Y-87769047D02*
X106315285Y-87721428D01*
X106315285Y-87721428D02*
X106291476Y-87697618D01*
X106291476Y-87697618D02*
X106243857Y-87673809D01*
X106243857Y-87673809D02*
X106220047Y-87673809D01*
X106220047Y-87673809D02*
X106172428Y-87697618D01*
X106172428Y-87697618D02*
X106148619Y-87721428D01*
X106148619Y-87721428D02*
X106124809Y-87769047D01*
X106124809Y-87769047D02*
X106124809Y-87864285D01*
X106124809Y-87864285D02*
X106148619Y-87911904D01*
X106148619Y-87911904D02*
X106172428Y-87935713D01*
X106172428Y-87935713D02*
X106220047Y-87959523D01*
X106220047Y-87959523D02*
X106243857Y-87959523D01*
X106243857Y-87959523D02*
X106291476Y-87935713D01*
X106291476Y-87935713D02*
X106315285Y-87911904D01*
X106315285Y-87911904D02*
X106339095Y-87864285D01*
X106339095Y-87864285D02*
X106339095Y-87769047D01*
X106339095Y-87769047D02*
X106362904Y-87721428D01*
X106362904Y-87721428D02*
X106386714Y-87697618D01*
X106386714Y-87697618D02*
X106434333Y-87673809D01*
X106434333Y-87673809D02*
X106529571Y-87673809D01*
X106529571Y-87673809D02*
X106577190Y-87697618D01*
X106577190Y-87697618D02*
X106601000Y-87721428D01*
X106601000Y-87721428D02*
X106624809Y-87769047D01*
X106624809Y-87769047D02*
X106624809Y-87864285D01*
X106624809Y-87864285D02*
X106601000Y-87911904D01*
X106601000Y-87911904D02*
X106577190Y-87935713D01*
X106577190Y-87935713D02*
X106529571Y-87959523D01*
X106529571Y-87959523D02*
X106434333Y-87959523D01*
X106434333Y-87959523D02*
X106386714Y-87935713D01*
X106386714Y-87935713D02*
X106362904Y-87911904D01*
X106362904Y-87911904D02*
X106339095Y-87864285D01*
X101774809Y-105642858D02*
X101774809Y-105928572D01*
X102274809Y-105785715D02*
X101774809Y-105785715D01*
X102274809Y-106095238D02*
X101774809Y-106095238D01*
X101774809Y-106095238D02*
X101774809Y-106285714D01*
X101774809Y-106285714D02*
X101798619Y-106333333D01*
X101798619Y-106333333D02*
X101822428Y-106357143D01*
X101822428Y-106357143D02*
X101870047Y-106380952D01*
X101870047Y-106380952D02*
X101941476Y-106380952D01*
X101941476Y-106380952D02*
X101989095Y-106357143D01*
X101989095Y-106357143D02*
X102012904Y-106333333D01*
X102012904Y-106333333D02*
X102036714Y-106285714D01*
X102036714Y-106285714D02*
X102036714Y-106095238D01*
X102274809Y-106857143D02*
X102274809Y-106571429D01*
X102274809Y-106714286D02*
X101774809Y-106714286D01*
X101774809Y-106714286D02*
X101846238Y-106666667D01*
X101846238Y-106666667D02*
X101893857Y-106619048D01*
X101893857Y-106619048D02*
X101917666Y-106571429D01*
X101822428Y-107047619D02*
X101798619Y-107071428D01*
X101798619Y-107071428D02*
X101774809Y-107119047D01*
X101774809Y-107119047D02*
X101774809Y-107238095D01*
X101774809Y-107238095D02*
X101798619Y-107285714D01*
X101798619Y-107285714D02*
X101822428Y-107309523D01*
X101822428Y-107309523D02*
X101870047Y-107333333D01*
X101870047Y-107333333D02*
X101917666Y-107333333D01*
X101917666Y-107333333D02*
X101989095Y-107309523D01*
X101989095Y-107309523D02*
X102274809Y-107023809D01*
X102274809Y-107023809D02*
X102274809Y-107333333D01*
X101989095Y-107619047D02*
X101965285Y-107571428D01*
X101965285Y-107571428D02*
X101941476Y-107547618D01*
X101941476Y-107547618D02*
X101893857Y-107523809D01*
X101893857Y-107523809D02*
X101870047Y-107523809D01*
X101870047Y-107523809D02*
X101822428Y-107547618D01*
X101822428Y-107547618D02*
X101798619Y-107571428D01*
X101798619Y-107571428D02*
X101774809Y-107619047D01*
X101774809Y-107619047D02*
X101774809Y-107714285D01*
X101774809Y-107714285D02*
X101798619Y-107761904D01*
X101798619Y-107761904D02*
X101822428Y-107785713D01*
X101822428Y-107785713D02*
X101870047Y-107809523D01*
X101870047Y-107809523D02*
X101893857Y-107809523D01*
X101893857Y-107809523D02*
X101941476Y-107785713D01*
X101941476Y-107785713D02*
X101965285Y-107761904D01*
X101965285Y-107761904D02*
X101989095Y-107714285D01*
X101989095Y-107714285D02*
X101989095Y-107619047D01*
X101989095Y-107619047D02*
X102012904Y-107571428D01*
X102012904Y-107571428D02*
X102036714Y-107547618D01*
X102036714Y-107547618D02*
X102084333Y-107523809D01*
X102084333Y-107523809D02*
X102179571Y-107523809D01*
X102179571Y-107523809D02*
X102227190Y-107547618D01*
X102227190Y-107547618D02*
X102251000Y-107571428D01*
X102251000Y-107571428D02*
X102274809Y-107619047D01*
X102274809Y-107619047D02*
X102274809Y-107714285D01*
X102274809Y-107714285D02*
X102251000Y-107761904D01*
X102251000Y-107761904D02*
X102227190Y-107785713D01*
X102227190Y-107785713D02*
X102179571Y-107809523D01*
X102179571Y-107809523D02*
X102084333Y-107809523D01*
X102084333Y-107809523D02*
X102036714Y-107785713D01*
X102036714Y-107785713D02*
X102012904Y-107761904D01*
X102012904Y-107761904D02*
X101989095Y-107714285D01*
X103724809Y-85792858D02*
X103724809Y-86078572D01*
X104224809Y-85935715D02*
X103724809Y-85935715D01*
X104224809Y-86245238D02*
X103724809Y-86245238D01*
X103724809Y-86245238D02*
X103724809Y-86435714D01*
X103724809Y-86435714D02*
X103748619Y-86483333D01*
X103748619Y-86483333D02*
X103772428Y-86507143D01*
X103772428Y-86507143D02*
X103820047Y-86530952D01*
X103820047Y-86530952D02*
X103891476Y-86530952D01*
X103891476Y-86530952D02*
X103939095Y-86507143D01*
X103939095Y-86507143D02*
X103962904Y-86483333D01*
X103962904Y-86483333D02*
X103986714Y-86435714D01*
X103986714Y-86435714D02*
X103986714Y-86245238D01*
X104224809Y-87007143D02*
X104224809Y-86721429D01*
X104224809Y-86864286D02*
X103724809Y-86864286D01*
X103724809Y-86864286D02*
X103796238Y-86816667D01*
X103796238Y-86816667D02*
X103843857Y-86769048D01*
X103843857Y-86769048D02*
X103867666Y-86721429D01*
X103724809Y-87173809D02*
X103724809Y-87483333D01*
X103724809Y-87483333D02*
X103915285Y-87316666D01*
X103915285Y-87316666D02*
X103915285Y-87388095D01*
X103915285Y-87388095D02*
X103939095Y-87435714D01*
X103939095Y-87435714D02*
X103962904Y-87459523D01*
X103962904Y-87459523D02*
X104010523Y-87483333D01*
X104010523Y-87483333D02*
X104129571Y-87483333D01*
X104129571Y-87483333D02*
X104177190Y-87459523D01*
X104177190Y-87459523D02*
X104201000Y-87435714D01*
X104201000Y-87435714D02*
X104224809Y-87388095D01*
X104224809Y-87388095D02*
X104224809Y-87245238D01*
X104224809Y-87245238D02*
X104201000Y-87197619D01*
X104201000Y-87197619D02*
X104177190Y-87173809D01*
X103891476Y-87911904D02*
X104224809Y-87911904D01*
X103701000Y-87792856D02*
X104058142Y-87673809D01*
X104058142Y-87673809D02*
X104058142Y-87983332D01*
X88374809Y-92342858D02*
X88374809Y-92628572D01*
X88874809Y-92485715D02*
X88374809Y-92485715D01*
X88874809Y-92795238D02*
X88374809Y-92795238D01*
X88374809Y-92795238D02*
X88374809Y-92985714D01*
X88374809Y-92985714D02*
X88398619Y-93033333D01*
X88398619Y-93033333D02*
X88422428Y-93057143D01*
X88422428Y-93057143D02*
X88470047Y-93080952D01*
X88470047Y-93080952D02*
X88541476Y-93080952D01*
X88541476Y-93080952D02*
X88589095Y-93057143D01*
X88589095Y-93057143D02*
X88612904Y-93033333D01*
X88612904Y-93033333D02*
X88636714Y-92985714D01*
X88636714Y-92985714D02*
X88636714Y-92795238D01*
X88874809Y-93557143D02*
X88874809Y-93271429D01*
X88874809Y-93414286D02*
X88374809Y-93414286D01*
X88374809Y-93414286D02*
X88446238Y-93366667D01*
X88446238Y-93366667D02*
X88493857Y-93319048D01*
X88493857Y-93319048D02*
X88517666Y-93271429D01*
X88422428Y-93747619D02*
X88398619Y-93771428D01*
X88398619Y-93771428D02*
X88374809Y-93819047D01*
X88374809Y-93819047D02*
X88374809Y-93938095D01*
X88374809Y-93938095D02*
X88398619Y-93985714D01*
X88398619Y-93985714D02*
X88422428Y-94009523D01*
X88422428Y-94009523D02*
X88470047Y-94033333D01*
X88470047Y-94033333D02*
X88517666Y-94033333D01*
X88517666Y-94033333D02*
X88589095Y-94009523D01*
X88589095Y-94009523D02*
X88874809Y-93723809D01*
X88874809Y-93723809D02*
X88874809Y-94033333D01*
X88374809Y-94199999D02*
X88374809Y-94509523D01*
X88374809Y-94509523D02*
X88565285Y-94342856D01*
X88565285Y-94342856D02*
X88565285Y-94414285D01*
X88565285Y-94414285D02*
X88589095Y-94461904D01*
X88589095Y-94461904D02*
X88612904Y-94485713D01*
X88612904Y-94485713D02*
X88660523Y-94509523D01*
X88660523Y-94509523D02*
X88779571Y-94509523D01*
X88779571Y-94509523D02*
X88827190Y-94485713D01*
X88827190Y-94485713D02*
X88851000Y-94461904D01*
X88851000Y-94461904D02*
X88874809Y-94414285D01*
X88874809Y-94414285D02*
X88874809Y-94271428D01*
X88874809Y-94271428D02*
X88851000Y-94223809D01*
X88851000Y-94223809D02*
X88827190Y-94199999D01*
X100069046Y-102024809D02*
X99783332Y-102024809D01*
X99926189Y-102524809D02*
X99926189Y-102024809D01*
X99616666Y-102524809D02*
X99616666Y-102024809D01*
X99616666Y-102024809D02*
X99426190Y-102024809D01*
X99426190Y-102024809D02*
X99378571Y-102048619D01*
X99378571Y-102048619D02*
X99354761Y-102072428D01*
X99354761Y-102072428D02*
X99330952Y-102120047D01*
X99330952Y-102120047D02*
X99330952Y-102191476D01*
X99330952Y-102191476D02*
X99354761Y-102239095D01*
X99354761Y-102239095D02*
X99378571Y-102262904D01*
X99378571Y-102262904D02*
X99426190Y-102286714D01*
X99426190Y-102286714D02*
X99616666Y-102286714D01*
X98902380Y-102191476D02*
X98902380Y-102524809D01*
X99021428Y-102001000D02*
X99140475Y-102358142D01*
X99140475Y-102358142D02*
X98830952Y-102358142D01*
X98426190Y-102024809D02*
X98521428Y-102024809D01*
X98521428Y-102024809D02*
X98569047Y-102048619D01*
X98569047Y-102048619D02*
X98592857Y-102072428D01*
X98592857Y-102072428D02*
X98640476Y-102143857D01*
X98640476Y-102143857D02*
X98664285Y-102239095D01*
X98664285Y-102239095D02*
X98664285Y-102429571D01*
X98664285Y-102429571D02*
X98640476Y-102477190D01*
X98640476Y-102477190D02*
X98616666Y-102501000D01*
X98616666Y-102501000D02*
X98569047Y-102524809D01*
X98569047Y-102524809D02*
X98473809Y-102524809D01*
X98473809Y-102524809D02*
X98426190Y-102501000D01*
X98426190Y-102501000D02*
X98402381Y-102477190D01*
X98402381Y-102477190D02*
X98378571Y-102429571D01*
X98378571Y-102429571D02*
X98378571Y-102310523D01*
X98378571Y-102310523D02*
X98402381Y-102262904D01*
X98402381Y-102262904D02*
X98426190Y-102239095D01*
X98426190Y-102239095D02*
X98473809Y-102215285D01*
X98473809Y-102215285D02*
X98569047Y-102215285D01*
X98569047Y-102215285D02*
X98616666Y-102239095D01*
X98616666Y-102239095D02*
X98640476Y-102262904D01*
X98640476Y-102262904D02*
X98664285Y-102310523D01*
X97069046Y-99074809D02*
X96783332Y-99074809D01*
X96926189Y-99574809D02*
X96926189Y-99074809D01*
X96616666Y-99574809D02*
X96616666Y-99074809D01*
X96616666Y-99074809D02*
X96426190Y-99074809D01*
X96426190Y-99074809D02*
X96378571Y-99098619D01*
X96378571Y-99098619D02*
X96354761Y-99122428D01*
X96354761Y-99122428D02*
X96330952Y-99170047D01*
X96330952Y-99170047D02*
X96330952Y-99241476D01*
X96330952Y-99241476D02*
X96354761Y-99289095D01*
X96354761Y-99289095D02*
X96378571Y-99312904D01*
X96378571Y-99312904D02*
X96426190Y-99336714D01*
X96426190Y-99336714D02*
X96616666Y-99336714D01*
X96164285Y-99074809D02*
X95830952Y-99074809D01*
X95830952Y-99074809D02*
X96045237Y-99574809D01*
X95426190Y-99074809D02*
X95521428Y-99074809D01*
X95521428Y-99074809D02*
X95569047Y-99098619D01*
X95569047Y-99098619D02*
X95592857Y-99122428D01*
X95592857Y-99122428D02*
X95640476Y-99193857D01*
X95640476Y-99193857D02*
X95664285Y-99289095D01*
X95664285Y-99289095D02*
X95664285Y-99479571D01*
X95664285Y-99479571D02*
X95640476Y-99527190D01*
X95640476Y-99527190D02*
X95616666Y-99551000D01*
X95616666Y-99551000D02*
X95569047Y-99574809D01*
X95569047Y-99574809D02*
X95473809Y-99574809D01*
X95473809Y-99574809D02*
X95426190Y-99551000D01*
X95426190Y-99551000D02*
X95402381Y-99527190D01*
X95402381Y-99527190D02*
X95378571Y-99479571D01*
X95378571Y-99479571D02*
X95378571Y-99360523D01*
X95378571Y-99360523D02*
X95402381Y-99312904D01*
X95402381Y-99312904D02*
X95426190Y-99289095D01*
X95426190Y-99289095D02*
X95473809Y-99265285D01*
X95473809Y-99265285D02*
X95569047Y-99265285D01*
X95569047Y-99265285D02*
X95616666Y-99289095D01*
X95616666Y-99289095D02*
X95640476Y-99312904D01*
X95640476Y-99312904D02*
X95664285Y-99360523D01*
X92874809Y-86642858D02*
X92874809Y-86928572D01*
X93374809Y-86785715D02*
X92874809Y-86785715D01*
X93374809Y-87095238D02*
X92874809Y-87095238D01*
X92874809Y-87095238D02*
X92874809Y-87285714D01*
X92874809Y-87285714D02*
X92898619Y-87333333D01*
X92898619Y-87333333D02*
X92922428Y-87357143D01*
X92922428Y-87357143D02*
X92970047Y-87380952D01*
X92970047Y-87380952D02*
X93041476Y-87380952D01*
X93041476Y-87380952D02*
X93089095Y-87357143D01*
X93089095Y-87357143D02*
X93112904Y-87333333D01*
X93112904Y-87333333D02*
X93136714Y-87285714D01*
X93136714Y-87285714D02*
X93136714Y-87095238D01*
X93374809Y-87857143D02*
X93374809Y-87571429D01*
X93374809Y-87714286D02*
X92874809Y-87714286D01*
X92874809Y-87714286D02*
X92946238Y-87666667D01*
X92946238Y-87666667D02*
X92993857Y-87619048D01*
X92993857Y-87619048D02*
X93017666Y-87571429D01*
X92874809Y-88023809D02*
X92874809Y-88333333D01*
X92874809Y-88333333D02*
X93065285Y-88166666D01*
X93065285Y-88166666D02*
X93065285Y-88238095D01*
X93065285Y-88238095D02*
X93089095Y-88285714D01*
X93089095Y-88285714D02*
X93112904Y-88309523D01*
X93112904Y-88309523D02*
X93160523Y-88333333D01*
X93160523Y-88333333D02*
X93279571Y-88333333D01*
X93279571Y-88333333D02*
X93327190Y-88309523D01*
X93327190Y-88309523D02*
X93351000Y-88285714D01*
X93351000Y-88285714D02*
X93374809Y-88238095D01*
X93374809Y-88238095D02*
X93374809Y-88095238D01*
X93374809Y-88095238D02*
X93351000Y-88047619D01*
X93351000Y-88047619D02*
X93327190Y-88023809D01*
X92922428Y-88523809D02*
X92898619Y-88547618D01*
X92898619Y-88547618D02*
X92874809Y-88595237D01*
X92874809Y-88595237D02*
X92874809Y-88714285D01*
X92874809Y-88714285D02*
X92898619Y-88761904D01*
X92898619Y-88761904D02*
X92922428Y-88785713D01*
X92922428Y-88785713D02*
X92970047Y-88809523D01*
X92970047Y-88809523D02*
X93017666Y-88809523D01*
X93017666Y-88809523D02*
X93089095Y-88785713D01*
X93089095Y-88785713D02*
X93374809Y-88499999D01*
X93374809Y-88499999D02*
X93374809Y-88809523D01*
X102474809Y-88242858D02*
X102474809Y-88528572D01*
X102974809Y-88385715D02*
X102474809Y-88385715D01*
X102974809Y-88695238D02*
X102474809Y-88695238D01*
X102474809Y-88695238D02*
X102474809Y-88885714D01*
X102474809Y-88885714D02*
X102498619Y-88933333D01*
X102498619Y-88933333D02*
X102522428Y-88957143D01*
X102522428Y-88957143D02*
X102570047Y-88980952D01*
X102570047Y-88980952D02*
X102641476Y-88980952D01*
X102641476Y-88980952D02*
X102689095Y-88957143D01*
X102689095Y-88957143D02*
X102712904Y-88933333D01*
X102712904Y-88933333D02*
X102736714Y-88885714D01*
X102736714Y-88885714D02*
X102736714Y-88695238D01*
X102974809Y-89457143D02*
X102974809Y-89171429D01*
X102974809Y-89314286D02*
X102474809Y-89314286D01*
X102474809Y-89314286D02*
X102546238Y-89266667D01*
X102546238Y-89266667D02*
X102593857Y-89219048D01*
X102593857Y-89219048D02*
X102617666Y-89171429D01*
X102522428Y-89647619D02*
X102498619Y-89671428D01*
X102498619Y-89671428D02*
X102474809Y-89719047D01*
X102474809Y-89719047D02*
X102474809Y-89838095D01*
X102474809Y-89838095D02*
X102498619Y-89885714D01*
X102498619Y-89885714D02*
X102522428Y-89909523D01*
X102522428Y-89909523D02*
X102570047Y-89933333D01*
X102570047Y-89933333D02*
X102617666Y-89933333D01*
X102617666Y-89933333D02*
X102689095Y-89909523D01*
X102689095Y-89909523D02*
X102974809Y-89623809D01*
X102974809Y-89623809D02*
X102974809Y-89933333D01*
X102474809Y-90242856D02*
X102474809Y-90290475D01*
X102474809Y-90290475D02*
X102498619Y-90338094D01*
X102498619Y-90338094D02*
X102522428Y-90361904D01*
X102522428Y-90361904D02*
X102570047Y-90385713D01*
X102570047Y-90385713D02*
X102665285Y-90409523D01*
X102665285Y-90409523D02*
X102784333Y-90409523D01*
X102784333Y-90409523D02*
X102879571Y-90385713D01*
X102879571Y-90385713D02*
X102927190Y-90361904D01*
X102927190Y-90361904D02*
X102951000Y-90338094D01*
X102951000Y-90338094D02*
X102974809Y-90290475D01*
X102974809Y-90290475D02*
X102974809Y-90242856D01*
X102974809Y-90242856D02*
X102951000Y-90195237D01*
X102951000Y-90195237D02*
X102927190Y-90171428D01*
X102927190Y-90171428D02*
X102879571Y-90147618D01*
X102879571Y-90147618D02*
X102784333Y-90123809D01*
X102784333Y-90123809D02*
X102665285Y-90123809D01*
X102665285Y-90123809D02*
X102570047Y-90147618D01*
X102570047Y-90147618D02*
X102522428Y-90171428D01*
X102522428Y-90171428D02*
X102498619Y-90195237D01*
X102498619Y-90195237D02*
X102474809Y-90242856D01*
X104924809Y-85792858D02*
X104924809Y-86078572D01*
X105424809Y-85935715D02*
X104924809Y-85935715D01*
X105424809Y-86245238D02*
X104924809Y-86245238D01*
X104924809Y-86245238D02*
X104924809Y-86435714D01*
X104924809Y-86435714D02*
X104948619Y-86483333D01*
X104948619Y-86483333D02*
X104972428Y-86507143D01*
X104972428Y-86507143D02*
X105020047Y-86530952D01*
X105020047Y-86530952D02*
X105091476Y-86530952D01*
X105091476Y-86530952D02*
X105139095Y-86507143D01*
X105139095Y-86507143D02*
X105162904Y-86483333D01*
X105162904Y-86483333D02*
X105186714Y-86435714D01*
X105186714Y-86435714D02*
X105186714Y-86245238D01*
X105424809Y-87007143D02*
X105424809Y-86721429D01*
X105424809Y-86864286D02*
X104924809Y-86864286D01*
X104924809Y-86864286D02*
X104996238Y-86816667D01*
X104996238Y-86816667D02*
X105043857Y-86769048D01*
X105043857Y-86769048D02*
X105067666Y-86721429D01*
X105424809Y-87483333D02*
X105424809Y-87197619D01*
X105424809Y-87340476D02*
X104924809Y-87340476D01*
X104924809Y-87340476D02*
X104996238Y-87292857D01*
X104996238Y-87292857D02*
X105043857Y-87245238D01*
X105043857Y-87245238D02*
X105067666Y-87197619D01*
X105424809Y-87721428D02*
X105424809Y-87816666D01*
X105424809Y-87816666D02*
X105401000Y-87864285D01*
X105401000Y-87864285D02*
X105377190Y-87888094D01*
X105377190Y-87888094D02*
X105305761Y-87935713D01*
X105305761Y-87935713D02*
X105210523Y-87959523D01*
X105210523Y-87959523D02*
X105020047Y-87959523D01*
X105020047Y-87959523D02*
X104972428Y-87935713D01*
X104972428Y-87935713D02*
X104948619Y-87911904D01*
X104948619Y-87911904D02*
X104924809Y-87864285D01*
X104924809Y-87864285D02*
X104924809Y-87769047D01*
X104924809Y-87769047D02*
X104948619Y-87721428D01*
X104948619Y-87721428D02*
X104972428Y-87697618D01*
X104972428Y-87697618D02*
X105020047Y-87673809D01*
X105020047Y-87673809D02*
X105139095Y-87673809D01*
X105139095Y-87673809D02*
X105186714Y-87697618D01*
X105186714Y-87697618D02*
X105210523Y-87721428D01*
X105210523Y-87721428D02*
X105234333Y-87769047D01*
X105234333Y-87769047D02*
X105234333Y-87864285D01*
X105234333Y-87864285D02*
X105210523Y-87911904D01*
X105210523Y-87911904D02*
X105186714Y-87935713D01*
X105186714Y-87935713D02*
X105139095Y-87959523D01*
X95069046Y-92574809D02*
X94783332Y-92574809D01*
X94926189Y-93074809D02*
X94926189Y-92574809D01*
X94616666Y-93074809D02*
X94616666Y-92574809D01*
X94616666Y-92574809D02*
X94426190Y-92574809D01*
X94426190Y-92574809D02*
X94378571Y-92598619D01*
X94378571Y-92598619D02*
X94354761Y-92622428D01*
X94354761Y-92622428D02*
X94330952Y-92670047D01*
X94330952Y-92670047D02*
X94330952Y-92741476D01*
X94330952Y-92741476D02*
X94354761Y-92789095D01*
X94354761Y-92789095D02*
X94378571Y-92812904D01*
X94378571Y-92812904D02*
X94426190Y-92836714D01*
X94426190Y-92836714D02*
X94616666Y-92836714D01*
X94140475Y-92622428D02*
X94116666Y-92598619D01*
X94116666Y-92598619D02*
X94069047Y-92574809D01*
X94069047Y-92574809D02*
X93949999Y-92574809D01*
X93949999Y-92574809D02*
X93902380Y-92598619D01*
X93902380Y-92598619D02*
X93878571Y-92622428D01*
X93878571Y-92622428D02*
X93854761Y-92670047D01*
X93854761Y-92670047D02*
X93854761Y-92717666D01*
X93854761Y-92717666D02*
X93878571Y-92789095D01*
X93878571Y-92789095D02*
X94164285Y-93074809D01*
X94164285Y-93074809D02*
X93854761Y-93074809D01*
X93545238Y-92574809D02*
X93497619Y-92574809D01*
X93497619Y-92574809D02*
X93450000Y-92598619D01*
X93450000Y-92598619D02*
X93426190Y-92622428D01*
X93426190Y-92622428D02*
X93402381Y-92670047D01*
X93402381Y-92670047D02*
X93378571Y-92765285D01*
X93378571Y-92765285D02*
X93378571Y-92884333D01*
X93378571Y-92884333D02*
X93402381Y-92979571D01*
X93402381Y-92979571D02*
X93426190Y-93027190D01*
X93426190Y-93027190D02*
X93450000Y-93051000D01*
X93450000Y-93051000D02*
X93497619Y-93074809D01*
X93497619Y-93074809D02*
X93545238Y-93074809D01*
X93545238Y-93074809D02*
X93592857Y-93051000D01*
X93592857Y-93051000D02*
X93616666Y-93027190D01*
X93616666Y-93027190D02*
X93640476Y-92979571D01*
X93640476Y-92979571D02*
X93664285Y-92884333D01*
X93664285Y-92884333D02*
X93664285Y-92765285D01*
X93664285Y-92765285D02*
X93640476Y-92670047D01*
X93640476Y-92670047D02*
X93616666Y-92622428D01*
X93616666Y-92622428D02*
X93592857Y-92598619D01*
X93592857Y-92598619D02*
X93545238Y-92574809D01*
X90924809Y-97880953D02*
X90924809Y-98166667D01*
X91424809Y-98023810D02*
X90924809Y-98023810D01*
X91424809Y-98333333D02*
X90924809Y-98333333D01*
X90924809Y-98333333D02*
X90924809Y-98523809D01*
X90924809Y-98523809D02*
X90948619Y-98571428D01*
X90948619Y-98571428D02*
X90972428Y-98595238D01*
X90972428Y-98595238D02*
X91020047Y-98619047D01*
X91020047Y-98619047D02*
X91091476Y-98619047D01*
X91091476Y-98619047D02*
X91139095Y-98595238D01*
X91139095Y-98595238D02*
X91162904Y-98571428D01*
X91162904Y-98571428D02*
X91186714Y-98523809D01*
X91186714Y-98523809D02*
X91186714Y-98333333D01*
X90924809Y-99047619D02*
X90924809Y-98952381D01*
X90924809Y-98952381D02*
X90948619Y-98904762D01*
X90948619Y-98904762D02*
X90972428Y-98880952D01*
X90972428Y-98880952D02*
X91043857Y-98833333D01*
X91043857Y-98833333D02*
X91139095Y-98809524D01*
X91139095Y-98809524D02*
X91329571Y-98809524D01*
X91329571Y-98809524D02*
X91377190Y-98833333D01*
X91377190Y-98833333D02*
X91401000Y-98857143D01*
X91401000Y-98857143D02*
X91424809Y-98904762D01*
X91424809Y-98904762D02*
X91424809Y-99000000D01*
X91424809Y-99000000D02*
X91401000Y-99047619D01*
X91401000Y-99047619D02*
X91377190Y-99071428D01*
X91377190Y-99071428D02*
X91329571Y-99095238D01*
X91329571Y-99095238D02*
X91210523Y-99095238D01*
X91210523Y-99095238D02*
X91162904Y-99071428D01*
X91162904Y-99071428D02*
X91139095Y-99047619D01*
X91139095Y-99047619D02*
X91115285Y-99000000D01*
X91115285Y-99000000D02*
X91115285Y-98904762D01*
X91115285Y-98904762D02*
X91139095Y-98857143D01*
X91139095Y-98857143D02*
X91162904Y-98833333D01*
X91162904Y-98833333D02*
X91210523Y-98809524D01*
X90924809Y-99547618D02*
X90924809Y-99309523D01*
X90924809Y-99309523D02*
X91162904Y-99285714D01*
X91162904Y-99285714D02*
X91139095Y-99309523D01*
X91139095Y-99309523D02*
X91115285Y-99357142D01*
X91115285Y-99357142D02*
X91115285Y-99476190D01*
X91115285Y-99476190D02*
X91139095Y-99523809D01*
X91139095Y-99523809D02*
X91162904Y-99547618D01*
X91162904Y-99547618D02*
X91210523Y-99571428D01*
X91210523Y-99571428D02*
X91329571Y-99571428D01*
X91329571Y-99571428D02*
X91377190Y-99547618D01*
X91377190Y-99547618D02*
X91401000Y-99523809D01*
X91401000Y-99523809D02*
X91424809Y-99476190D01*
X91424809Y-99476190D02*
X91424809Y-99357142D01*
X91424809Y-99357142D02*
X91401000Y-99309523D01*
X91401000Y-99309523D02*
X91377190Y-99285714D01*
X100369046Y-78424809D02*
X100083332Y-78424809D01*
X100226189Y-78924809D02*
X100226189Y-78424809D01*
X99916666Y-78924809D02*
X99916666Y-78424809D01*
X99916666Y-78424809D02*
X99726190Y-78424809D01*
X99726190Y-78424809D02*
X99678571Y-78448619D01*
X99678571Y-78448619D02*
X99654761Y-78472428D01*
X99654761Y-78472428D02*
X99630952Y-78520047D01*
X99630952Y-78520047D02*
X99630952Y-78591476D01*
X99630952Y-78591476D02*
X99654761Y-78639095D01*
X99654761Y-78639095D02*
X99678571Y-78662904D01*
X99678571Y-78662904D02*
X99726190Y-78686714D01*
X99726190Y-78686714D02*
X99916666Y-78686714D01*
X99178571Y-78424809D02*
X99416666Y-78424809D01*
X99416666Y-78424809D02*
X99440475Y-78662904D01*
X99440475Y-78662904D02*
X99416666Y-78639095D01*
X99416666Y-78639095D02*
X99369047Y-78615285D01*
X99369047Y-78615285D02*
X99249999Y-78615285D01*
X99249999Y-78615285D02*
X99202380Y-78639095D01*
X99202380Y-78639095D02*
X99178571Y-78662904D01*
X99178571Y-78662904D02*
X99154761Y-78710523D01*
X99154761Y-78710523D02*
X99154761Y-78829571D01*
X99154761Y-78829571D02*
X99178571Y-78877190D01*
X99178571Y-78877190D02*
X99202380Y-78901000D01*
X99202380Y-78901000D02*
X99249999Y-78924809D01*
X99249999Y-78924809D02*
X99369047Y-78924809D01*
X99369047Y-78924809D02*
X99416666Y-78901000D01*
X99416666Y-78901000D02*
X99440475Y-78877190D01*
X98916666Y-78924809D02*
X98821428Y-78924809D01*
X98821428Y-78924809D02*
X98773809Y-78901000D01*
X98773809Y-78901000D02*
X98750000Y-78877190D01*
X98750000Y-78877190D02*
X98702381Y-78805761D01*
X98702381Y-78805761D02*
X98678571Y-78710523D01*
X98678571Y-78710523D02*
X98678571Y-78520047D01*
X98678571Y-78520047D02*
X98702381Y-78472428D01*
X98702381Y-78472428D02*
X98726190Y-78448619D01*
X98726190Y-78448619D02*
X98773809Y-78424809D01*
X98773809Y-78424809D02*
X98869047Y-78424809D01*
X98869047Y-78424809D02*
X98916666Y-78448619D01*
X98916666Y-78448619D02*
X98940476Y-78472428D01*
X98940476Y-78472428D02*
X98964285Y-78520047D01*
X98964285Y-78520047D02*
X98964285Y-78639095D01*
X98964285Y-78639095D02*
X98940476Y-78686714D01*
X98940476Y-78686714D02*
X98916666Y-78710523D01*
X98916666Y-78710523D02*
X98869047Y-78734333D01*
X98869047Y-78734333D02*
X98773809Y-78734333D01*
X98773809Y-78734333D02*
X98726190Y-78710523D01*
X98726190Y-78710523D02*
X98702381Y-78686714D01*
X98702381Y-78686714D02*
X98678571Y-78639095D01*
X105624809Y-94292858D02*
X105624809Y-94578572D01*
X106124809Y-94435715D02*
X105624809Y-94435715D01*
X106124809Y-94745238D02*
X105624809Y-94745238D01*
X105624809Y-94745238D02*
X105624809Y-94935714D01*
X105624809Y-94935714D02*
X105648619Y-94983333D01*
X105648619Y-94983333D02*
X105672428Y-95007143D01*
X105672428Y-95007143D02*
X105720047Y-95030952D01*
X105720047Y-95030952D02*
X105791476Y-95030952D01*
X105791476Y-95030952D02*
X105839095Y-95007143D01*
X105839095Y-95007143D02*
X105862904Y-94983333D01*
X105862904Y-94983333D02*
X105886714Y-94935714D01*
X105886714Y-94935714D02*
X105886714Y-94745238D01*
X106124809Y-95507143D02*
X106124809Y-95221429D01*
X106124809Y-95364286D02*
X105624809Y-95364286D01*
X105624809Y-95364286D02*
X105696238Y-95316667D01*
X105696238Y-95316667D02*
X105743857Y-95269048D01*
X105743857Y-95269048D02*
X105767666Y-95221429D01*
X105624809Y-95673809D02*
X105624809Y-95983333D01*
X105624809Y-95983333D02*
X105815285Y-95816666D01*
X105815285Y-95816666D02*
X105815285Y-95888095D01*
X105815285Y-95888095D02*
X105839095Y-95935714D01*
X105839095Y-95935714D02*
X105862904Y-95959523D01*
X105862904Y-95959523D02*
X105910523Y-95983333D01*
X105910523Y-95983333D02*
X106029571Y-95983333D01*
X106029571Y-95983333D02*
X106077190Y-95959523D01*
X106077190Y-95959523D02*
X106101000Y-95935714D01*
X106101000Y-95935714D02*
X106124809Y-95888095D01*
X106124809Y-95888095D02*
X106124809Y-95745238D01*
X106124809Y-95745238D02*
X106101000Y-95697619D01*
X106101000Y-95697619D02*
X106077190Y-95673809D01*
X105624809Y-96149999D02*
X105624809Y-96483332D01*
X105624809Y-96483332D02*
X106124809Y-96269047D01*
X103619046Y-103124809D02*
X103333332Y-103124809D01*
X103476189Y-103624809D02*
X103476189Y-103124809D01*
X103166666Y-103624809D02*
X103166666Y-103124809D01*
X103166666Y-103124809D02*
X102976190Y-103124809D01*
X102976190Y-103124809D02*
X102928571Y-103148619D01*
X102928571Y-103148619D02*
X102904761Y-103172428D01*
X102904761Y-103172428D02*
X102880952Y-103220047D01*
X102880952Y-103220047D02*
X102880952Y-103291476D01*
X102880952Y-103291476D02*
X102904761Y-103339095D01*
X102904761Y-103339095D02*
X102928571Y-103362904D01*
X102928571Y-103362904D02*
X102976190Y-103386714D01*
X102976190Y-103386714D02*
X103166666Y-103386714D01*
X102714285Y-103124809D02*
X102404761Y-103124809D01*
X102404761Y-103124809D02*
X102571428Y-103315285D01*
X102571428Y-103315285D02*
X102499999Y-103315285D01*
X102499999Y-103315285D02*
X102452380Y-103339095D01*
X102452380Y-103339095D02*
X102428571Y-103362904D01*
X102428571Y-103362904D02*
X102404761Y-103410523D01*
X102404761Y-103410523D02*
X102404761Y-103529571D01*
X102404761Y-103529571D02*
X102428571Y-103577190D01*
X102428571Y-103577190D02*
X102452380Y-103601000D01*
X102452380Y-103601000D02*
X102499999Y-103624809D01*
X102499999Y-103624809D02*
X102642856Y-103624809D01*
X102642856Y-103624809D02*
X102690475Y-103601000D01*
X102690475Y-103601000D02*
X102714285Y-103577190D01*
X102119047Y-103339095D02*
X102166666Y-103315285D01*
X102166666Y-103315285D02*
X102190476Y-103291476D01*
X102190476Y-103291476D02*
X102214285Y-103243857D01*
X102214285Y-103243857D02*
X102214285Y-103220047D01*
X102214285Y-103220047D02*
X102190476Y-103172428D01*
X102190476Y-103172428D02*
X102166666Y-103148619D01*
X102166666Y-103148619D02*
X102119047Y-103124809D01*
X102119047Y-103124809D02*
X102023809Y-103124809D01*
X102023809Y-103124809D02*
X101976190Y-103148619D01*
X101976190Y-103148619D02*
X101952381Y-103172428D01*
X101952381Y-103172428D02*
X101928571Y-103220047D01*
X101928571Y-103220047D02*
X101928571Y-103243857D01*
X101928571Y-103243857D02*
X101952381Y-103291476D01*
X101952381Y-103291476D02*
X101976190Y-103315285D01*
X101976190Y-103315285D02*
X102023809Y-103339095D01*
X102023809Y-103339095D02*
X102119047Y-103339095D01*
X102119047Y-103339095D02*
X102166666Y-103362904D01*
X102166666Y-103362904D02*
X102190476Y-103386714D01*
X102190476Y-103386714D02*
X102214285Y-103434333D01*
X102214285Y-103434333D02*
X102214285Y-103529571D01*
X102214285Y-103529571D02*
X102190476Y-103577190D01*
X102190476Y-103577190D02*
X102166666Y-103601000D01*
X102166666Y-103601000D02*
X102119047Y-103624809D01*
X102119047Y-103624809D02*
X102023809Y-103624809D01*
X102023809Y-103624809D02*
X101976190Y-103601000D01*
X101976190Y-103601000D02*
X101952381Y-103577190D01*
X101952381Y-103577190D02*
X101928571Y-103529571D01*
X101928571Y-103529571D02*
X101928571Y-103434333D01*
X101928571Y-103434333D02*
X101952381Y-103386714D01*
X101952381Y-103386714D02*
X101976190Y-103362904D01*
X101976190Y-103362904D02*
X102023809Y-103339095D01*
X102524809Y-91192858D02*
X102524809Y-91478572D01*
X103024809Y-91335715D02*
X102524809Y-91335715D01*
X103024809Y-91645238D02*
X102524809Y-91645238D01*
X102524809Y-91645238D02*
X102524809Y-91835714D01*
X102524809Y-91835714D02*
X102548619Y-91883333D01*
X102548619Y-91883333D02*
X102572428Y-91907143D01*
X102572428Y-91907143D02*
X102620047Y-91930952D01*
X102620047Y-91930952D02*
X102691476Y-91930952D01*
X102691476Y-91930952D02*
X102739095Y-91907143D01*
X102739095Y-91907143D02*
X102762904Y-91883333D01*
X102762904Y-91883333D02*
X102786714Y-91835714D01*
X102786714Y-91835714D02*
X102786714Y-91645238D01*
X103024809Y-92407143D02*
X103024809Y-92121429D01*
X103024809Y-92264286D02*
X102524809Y-92264286D01*
X102524809Y-92264286D02*
X102596238Y-92216667D01*
X102596238Y-92216667D02*
X102643857Y-92169048D01*
X102643857Y-92169048D02*
X102667666Y-92121429D01*
X103024809Y-92883333D02*
X103024809Y-92597619D01*
X103024809Y-92740476D02*
X102524809Y-92740476D01*
X102524809Y-92740476D02*
X102596238Y-92692857D01*
X102596238Y-92692857D02*
X102643857Y-92645238D01*
X102643857Y-92645238D02*
X102667666Y-92597619D01*
X102691476Y-93311904D02*
X103024809Y-93311904D01*
X102501000Y-93192856D02*
X102858142Y-93073809D01*
X102858142Y-93073809D02*
X102858142Y-93383332D01*
X109857141Y-109274809D02*
X109571427Y-109274809D01*
X109714284Y-109774809D02*
X109714284Y-109274809D01*
X109404761Y-109774809D02*
X109404761Y-109274809D01*
X109404761Y-109274809D02*
X109214285Y-109274809D01*
X109214285Y-109274809D02*
X109166666Y-109298619D01*
X109166666Y-109298619D02*
X109142856Y-109322428D01*
X109142856Y-109322428D02*
X109119047Y-109370047D01*
X109119047Y-109370047D02*
X109119047Y-109441476D01*
X109119047Y-109441476D02*
X109142856Y-109489095D01*
X109142856Y-109489095D02*
X109166666Y-109512904D01*
X109166666Y-109512904D02*
X109214285Y-109536714D01*
X109214285Y-109536714D02*
X109404761Y-109536714D01*
X108642856Y-109774809D02*
X108928570Y-109774809D01*
X108785713Y-109774809D02*
X108785713Y-109274809D01*
X108785713Y-109274809D02*
X108833332Y-109346238D01*
X108833332Y-109346238D02*
X108880951Y-109393857D01*
X108880951Y-109393857D02*
X108928570Y-109417666D01*
X108476190Y-109274809D02*
X108166666Y-109274809D01*
X108166666Y-109274809D02*
X108333333Y-109465285D01*
X108333333Y-109465285D02*
X108261904Y-109465285D01*
X108261904Y-109465285D02*
X108214285Y-109489095D01*
X108214285Y-109489095D02*
X108190476Y-109512904D01*
X108190476Y-109512904D02*
X108166666Y-109560523D01*
X108166666Y-109560523D02*
X108166666Y-109679571D01*
X108166666Y-109679571D02*
X108190476Y-109727190D01*
X108190476Y-109727190D02*
X108214285Y-109751000D01*
X108214285Y-109751000D02*
X108261904Y-109774809D01*
X108261904Y-109774809D02*
X108404761Y-109774809D01*
X108404761Y-109774809D02*
X108452380Y-109751000D01*
X108452380Y-109751000D02*
X108476190Y-109727190D01*
X108000000Y-109274809D02*
X107690476Y-109274809D01*
X107690476Y-109274809D02*
X107857143Y-109465285D01*
X107857143Y-109465285D02*
X107785714Y-109465285D01*
X107785714Y-109465285D02*
X107738095Y-109489095D01*
X107738095Y-109489095D02*
X107714286Y-109512904D01*
X107714286Y-109512904D02*
X107690476Y-109560523D01*
X107690476Y-109560523D02*
X107690476Y-109679571D01*
X107690476Y-109679571D02*
X107714286Y-109727190D01*
X107714286Y-109727190D02*
X107738095Y-109751000D01*
X107738095Y-109751000D02*
X107785714Y-109774809D01*
X107785714Y-109774809D02*
X107928571Y-109774809D01*
X107928571Y-109774809D02*
X107976190Y-109751000D01*
X107976190Y-109751000D02*
X108000000Y-109727190D01*
X98569046Y-86674809D02*
X98283332Y-86674809D01*
X98426189Y-87174809D02*
X98426189Y-86674809D01*
X98116666Y-87174809D02*
X98116666Y-86674809D01*
X98116666Y-86674809D02*
X97926190Y-86674809D01*
X97926190Y-86674809D02*
X97878571Y-86698619D01*
X97878571Y-86698619D02*
X97854761Y-86722428D01*
X97854761Y-86722428D02*
X97830952Y-86770047D01*
X97830952Y-86770047D02*
X97830952Y-86841476D01*
X97830952Y-86841476D02*
X97854761Y-86889095D01*
X97854761Y-86889095D02*
X97878571Y-86912904D01*
X97878571Y-86912904D02*
X97926190Y-86936714D01*
X97926190Y-86936714D02*
X98116666Y-86936714D01*
X97402380Y-86674809D02*
X97497618Y-86674809D01*
X97497618Y-86674809D02*
X97545237Y-86698619D01*
X97545237Y-86698619D02*
X97569047Y-86722428D01*
X97569047Y-86722428D02*
X97616666Y-86793857D01*
X97616666Y-86793857D02*
X97640475Y-86889095D01*
X97640475Y-86889095D02*
X97640475Y-87079571D01*
X97640475Y-87079571D02*
X97616666Y-87127190D01*
X97616666Y-87127190D02*
X97592856Y-87151000D01*
X97592856Y-87151000D02*
X97545237Y-87174809D01*
X97545237Y-87174809D02*
X97449999Y-87174809D01*
X97449999Y-87174809D02*
X97402380Y-87151000D01*
X97402380Y-87151000D02*
X97378571Y-87127190D01*
X97378571Y-87127190D02*
X97354761Y-87079571D01*
X97354761Y-87079571D02*
X97354761Y-86960523D01*
X97354761Y-86960523D02*
X97378571Y-86912904D01*
X97378571Y-86912904D02*
X97402380Y-86889095D01*
X97402380Y-86889095D02*
X97449999Y-86865285D01*
X97449999Y-86865285D02*
X97545237Y-86865285D01*
X97545237Y-86865285D02*
X97592856Y-86889095D01*
X97592856Y-86889095D02*
X97616666Y-86912904D01*
X97616666Y-86912904D02*
X97640475Y-86960523D01*
X97188095Y-86674809D02*
X96854762Y-86674809D01*
X96854762Y-86674809D02*
X97069047Y-87174809D01*
X95169046Y-91324809D02*
X94883332Y-91324809D01*
X95026189Y-91824809D02*
X95026189Y-91324809D01*
X94716666Y-91824809D02*
X94716666Y-91324809D01*
X94716666Y-91324809D02*
X94526190Y-91324809D01*
X94526190Y-91324809D02*
X94478571Y-91348619D01*
X94478571Y-91348619D02*
X94454761Y-91372428D01*
X94454761Y-91372428D02*
X94430952Y-91420047D01*
X94430952Y-91420047D02*
X94430952Y-91491476D01*
X94430952Y-91491476D02*
X94454761Y-91539095D01*
X94454761Y-91539095D02*
X94478571Y-91562904D01*
X94478571Y-91562904D02*
X94526190Y-91586714D01*
X94526190Y-91586714D02*
X94716666Y-91586714D01*
X93954761Y-91824809D02*
X94240475Y-91824809D01*
X94097618Y-91824809D02*
X94097618Y-91324809D01*
X94097618Y-91324809D02*
X94145237Y-91396238D01*
X94145237Y-91396238D02*
X94192856Y-91443857D01*
X94192856Y-91443857D02*
X94240475Y-91467666D01*
X93716666Y-91824809D02*
X93621428Y-91824809D01*
X93621428Y-91824809D02*
X93573809Y-91801000D01*
X93573809Y-91801000D02*
X93550000Y-91777190D01*
X93550000Y-91777190D02*
X93502381Y-91705761D01*
X93502381Y-91705761D02*
X93478571Y-91610523D01*
X93478571Y-91610523D02*
X93478571Y-91420047D01*
X93478571Y-91420047D02*
X93502381Y-91372428D01*
X93502381Y-91372428D02*
X93526190Y-91348619D01*
X93526190Y-91348619D02*
X93573809Y-91324809D01*
X93573809Y-91324809D02*
X93669047Y-91324809D01*
X93669047Y-91324809D02*
X93716666Y-91348619D01*
X93716666Y-91348619D02*
X93740476Y-91372428D01*
X93740476Y-91372428D02*
X93764285Y-91420047D01*
X93764285Y-91420047D02*
X93764285Y-91539095D01*
X93764285Y-91539095D02*
X93740476Y-91586714D01*
X93740476Y-91586714D02*
X93716666Y-91610523D01*
X93716666Y-91610523D02*
X93669047Y-91634333D01*
X93669047Y-91634333D02*
X93573809Y-91634333D01*
X93573809Y-91634333D02*
X93526190Y-91610523D01*
X93526190Y-91610523D02*
X93502381Y-91586714D01*
X93502381Y-91586714D02*
X93478571Y-91539095D01*
X98919046Y-103974809D02*
X98633332Y-103974809D01*
X98776189Y-104474809D02*
X98776189Y-103974809D01*
X98466666Y-104474809D02*
X98466666Y-103974809D01*
X98466666Y-103974809D02*
X98276190Y-103974809D01*
X98276190Y-103974809D02*
X98228571Y-103998619D01*
X98228571Y-103998619D02*
X98204761Y-104022428D01*
X98204761Y-104022428D02*
X98180952Y-104070047D01*
X98180952Y-104070047D02*
X98180952Y-104141476D01*
X98180952Y-104141476D02*
X98204761Y-104189095D01*
X98204761Y-104189095D02*
X98228571Y-104212904D01*
X98228571Y-104212904D02*
X98276190Y-104236714D01*
X98276190Y-104236714D02*
X98466666Y-104236714D01*
X97752380Y-103974809D02*
X97847618Y-103974809D01*
X97847618Y-103974809D02*
X97895237Y-103998619D01*
X97895237Y-103998619D02*
X97919047Y-104022428D01*
X97919047Y-104022428D02*
X97966666Y-104093857D01*
X97966666Y-104093857D02*
X97990475Y-104189095D01*
X97990475Y-104189095D02*
X97990475Y-104379571D01*
X97990475Y-104379571D02*
X97966666Y-104427190D01*
X97966666Y-104427190D02*
X97942856Y-104451000D01*
X97942856Y-104451000D02*
X97895237Y-104474809D01*
X97895237Y-104474809D02*
X97799999Y-104474809D01*
X97799999Y-104474809D02*
X97752380Y-104451000D01*
X97752380Y-104451000D02*
X97728571Y-104427190D01*
X97728571Y-104427190D02*
X97704761Y-104379571D01*
X97704761Y-104379571D02*
X97704761Y-104260523D01*
X97704761Y-104260523D02*
X97728571Y-104212904D01*
X97728571Y-104212904D02*
X97752380Y-104189095D01*
X97752380Y-104189095D02*
X97799999Y-104165285D01*
X97799999Y-104165285D02*
X97895237Y-104165285D01*
X97895237Y-104165285D02*
X97942856Y-104189095D01*
X97942856Y-104189095D02*
X97966666Y-104212904D01*
X97966666Y-104212904D02*
X97990475Y-104260523D01*
X97419047Y-104189095D02*
X97466666Y-104165285D01*
X97466666Y-104165285D02*
X97490476Y-104141476D01*
X97490476Y-104141476D02*
X97514285Y-104093857D01*
X97514285Y-104093857D02*
X97514285Y-104070047D01*
X97514285Y-104070047D02*
X97490476Y-104022428D01*
X97490476Y-104022428D02*
X97466666Y-103998619D01*
X97466666Y-103998619D02*
X97419047Y-103974809D01*
X97419047Y-103974809D02*
X97323809Y-103974809D01*
X97323809Y-103974809D02*
X97276190Y-103998619D01*
X97276190Y-103998619D02*
X97252381Y-104022428D01*
X97252381Y-104022428D02*
X97228571Y-104070047D01*
X97228571Y-104070047D02*
X97228571Y-104093857D01*
X97228571Y-104093857D02*
X97252381Y-104141476D01*
X97252381Y-104141476D02*
X97276190Y-104165285D01*
X97276190Y-104165285D02*
X97323809Y-104189095D01*
X97323809Y-104189095D02*
X97419047Y-104189095D01*
X97419047Y-104189095D02*
X97466666Y-104212904D01*
X97466666Y-104212904D02*
X97490476Y-104236714D01*
X97490476Y-104236714D02*
X97514285Y-104284333D01*
X97514285Y-104284333D02*
X97514285Y-104379571D01*
X97514285Y-104379571D02*
X97490476Y-104427190D01*
X97490476Y-104427190D02*
X97466666Y-104451000D01*
X97466666Y-104451000D02*
X97419047Y-104474809D01*
X97419047Y-104474809D02*
X97323809Y-104474809D01*
X97323809Y-104474809D02*
X97276190Y-104451000D01*
X97276190Y-104451000D02*
X97252381Y-104427190D01*
X97252381Y-104427190D02*
X97228571Y-104379571D01*
X97228571Y-104379571D02*
X97228571Y-104284333D01*
X97228571Y-104284333D02*
X97252381Y-104236714D01*
X97252381Y-104236714D02*
X97276190Y-104212904D01*
X97276190Y-104212904D02*
X97323809Y-104189095D01*
X101724809Y-91142858D02*
X101724809Y-91428572D01*
X102224809Y-91285715D02*
X101724809Y-91285715D01*
X102224809Y-91595238D02*
X101724809Y-91595238D01*
X101724809Y-91595238D02*
X101724809Y-91785714D01*
X101724809Y-91785714D02*
X101748619Y-91833333D01*
X101748619Y-91833333D02*
X101772428Y-91857143D01*
X101772428Y-91857143D02*
X101820047Y-91880952D01*
X101820047Y-91880952D02*
X101891476Y-91880952D01*
X101891476Y-91880952D02*
X101939095Y-91857143D01*
X101939095Y-91857143D02*
X101962904Y-91833333D01*
X101962904Y-91833333D02*
X101986714Y-91785714D01*
X101986714Y-91785714D02*
X101986714Y-91595238D01*
X102224809Y-92357143D02*
X102224809Y-92071429D01*
X102224809Y-92214286D02*
X101724809Y-92214286D01*
X101724809Y-92214286D02*
X101796238Y-92166667D01*
X101796238Y-92166667D02*
X101843857Y-92119048D01*
X101843857Y-92119048D02*
X101867666Y-92071429D01*
X102224809Y-92833333D02*
X102224809Y-92547619D01*
X102224809Y-92690476D02*
X101724809Y-92690476D01*
X101724809Y-92690476D02*
X101796238Y-92642857D01*
X101796238Y-92642857D02*
X101843857Y-92595238D01*
X101843857Y-92595238D02*
X101867666Y-92547619D01*
X101724809Y-92999999D02*
X101724809Y-93309523D01*
X101724809Y-93309523D02*
X101915285Y-93142856D01*
X101915285Y-93142856D02*
X101915285Y-93214285D01*
X101915285Y-93214285D02*
X101939095Y-93261904D01*
X101939095Y-93261904D02*
X101962904Y-93285713D01*
X101962904Y-93285713D02*
X102010523Y-93309523D01*
X102010523Y-93309523D02*
X102129571Y-93309523D01*
X102129571Y-93309523D02*
X102177190Y-93285713D01*
X102177190Y-93285713D02*
X102201000Y-93261904D01*
X102201000Y-93261904D02*
X102224809Y-93214285D01*
X102224809Y-93214285D02*
X102224809Y-93071428D01*
X102224809Y-93071428D02*
X102201000Y-93023809D01*
X102201000Y-93023809D02*
X102177190Y-92999999D01*
X89524809Y-98280953D02*
X89524809Y-98566667D01*
X90024809Y-98423810D02*
X89524809Y-98423810D01*
X90024809Y-98733333D02*
X89524809Y-98733333D01*
X89524809Y-98733333D02*
X89524809Y-98923809D01*
X89524809Y-98923809D02*
X89548619Y-98971428D01*
X89548619Y-98971428D02*
X89572428Y-98995238D01*
X89572428Y-98995238D02*
X89620047Y-99019047D01*
X89620047Y-99019047D02*
X89691476Y-99019047D01*
X89691476Y-99019047D02*
X89739095Y-98995238D01*
X89739095Y-98995238D02*
X89762904Y-98971428D01*
X89762904Y-98971428D02*
X89786714Y-98923809D01*
X89786714Y-98923809D02*
X89786714Y-98733333D01*
X89524809Y-99447619D02*
X89524809Y-99352381D01*
X89524809Y-99352381D02*
X89548619Y-99304762D01*
X89548619Y-99304762D02*
X89572428Y-99280952D01*
X89572428Y-99280952D02*
X89643857Y-99233333D01*
X89643857Y-99233333D02*
X89739095Y-99209524D01*
X89739095Y-99209524D02*
X89929571Y-99209524D01*
X89929571Y-99209524D02*
X89977190Y-99233333D01*
X89977190Y-99233333D02*
X90001000Y-99257143D01*
X90001000Y-99257143D02*
X90024809Y-99304762D01*
X90024809Y-99304762D02*
X90024809Y-99400000D01*
X90024809Y-99400000D02*
X90001000Y-99447619D01*
X90001000Y-99447619D02*
X89977190Y-99471428D01*
X89977190Y-99471428D02*
X89929571Y-99495238D01*
X89929571Y-99495238D02*
X89810523Y-99495238D01*
X89810523Y-99495238D02*
X89762904Y-99471428D01*
X89762904Y-99471428D02*
X89739095Y-99447619D01*
X89739095Y-99447619D02*
X89715285Y-99400000D01*
X89715285Y-99400000D02*
X89715285Y-99304762D01*
X89715285Y-99304762D02*
X89739095Y-99257143D01*
X89739095Y-99257143D02*
X89762904Y-99233333D01*
X89762904Y-99233333D02*
X89810523Y-99209524D01*
X89524809Y-99923809D02*
X89524809Y-99828571D01*
X89524809Y-99828571D02*
X89548619Y-99780952D01*
X89548619Y-99780952D02*
X89572428Y-99757142D01*
X89572428Y-99757142D02*
X89643857Y-99709523D01*
X89643857Y-99709523D02*
X89739095Y-99685714D01*
X89739095Y-99685714D02*
X89929571Y-99685714D01*
X89929571Y-99685714D02*
X89977190Y-99709523D01*
X89977190Y-99709523D02*
X90001000Y-99733333D01*
X90001000Y-99733333D02*
X90024809Y-99780952D01*
X90024809Y-99780952D02*
X90024809Y-99876190D01*
X90024809Y-99876190D02*
X90001000Y-99923809D01*
X90001000Y-99923809D02*
X89977190Y-99947618D01*
X89977190Y-99947618D02*
X89929571Y-99971428D01*
X89929571Y-99971428D02*
X89810523Y-99971428D01*
X89810523Y-99971428D02*
X89762904Y-99947618D01*
X89762904Y-99947618D02*
X89739095Y-99923809D01*
X89739095Y-99923809D02*
X89715285Y-99876190D01*
X89715285Y-99876190D02*
X89715285Y-99780952D01*
X89715285Y-99780952D02*
X89739095Y-99733333D01*
X89739095Y-99733333D02*
X89762904Y-99709523D01*
X89762904Y-99709523D02*
X89810523Y-99685714D01*
X110807141Y-94924809D02*
X110521427Y-94924809D01*
X110664284Y-95424809D02*
X110664284Y-94924809D01*
X110354761Y-95424809D02*
X110354761Y-94924809D01*
X110354761Y-94924809D02*
X110164285Y-94924809D01*
X110164285Y-94924809D02*
X110116666Y-94948619D01*
X110116666Y-94948619D02*
X110092856Y-94972428D01*
X110092856Y-94972428D02*
X110069047Y-95020047D01*
X110069047Y-95020047D02*
X110069047Y-95091476D01*
X110069047Y-95091476D02*
X110092856Y-95139095D01*
X110092856Y-95139095D02*
X110116666Y-95162904D01*
X110116666Y-95162904D02*
X110164285Y-95186714D01*
X110164285Y-95186714D02*
X110354761Y-95186714D01*
X109592856Y-95424809D02*
X109878570Y-95424809D01*
X109735713Y-95424809D02*
X109735713Y-94924809D01*
X109735713Y-94924809D02*
X109783332Y-94996238D01*
X109783332Y-94996238D02*
X109830951Y-95043857D01*
X109830951Y-95043857D02*
X109878570Y-95067666D01*
X109426190Y-94924809D02*
X109116666Y-94924809D01*
X109116666Y-94924809D02*
X109283333Y-95115285D01*
X109283333Y-95115285D02*
X109211904Y-95115285D01*
X109211904Y-95115285D02*
X109164285Y-95139095D01*
X109164285Y-95139095D02*
X109140476Y-95162904D01*
X109140476Y-95162904D02*
X109116666Y-95210523D01*
X109116666Y-95210523D02*
X109116666Y-95329571D01*
X109116666Y-95329571D02*
X109140476Y-95377190D01*
X109140476Y-95377190D02*
X109164285Y-95401000D01*
X109164285Y-95401000D02*
X109211904Y-95424809D01*
X109211904Y-95424809D02*
X109354761Y-95424809D01*
X109354761Y-95424809D02*
X109402380Y-95401000D01*
X109402380Y-95401000D02*
X109426190Y-95377190D01*
X108878571Y-95424809D02*
X108783333Y-95424809D01*
X108783333Y-95424809D02*
X108735714Y-95401000D01*
X108735714Y-95401000D02*
X108711905Y-95377190D01*
X108711905Y-95377190D02*
X108664286Y-95305761D01*
X108664286Y-95305761D02*
X108640476Y-95210523D01*
X108640476Y-95210523D02*
X108640476Y-95020047D01*
X108640476Y-95020047D02*
X108664286Y-94972428D01*
X108664286Y-94972428D02*
X108688095Y-94948619D01*
X108688095Y-94948619D02*
X108735714Y-94924809D01*
X108735714Y-94924809D02*
X108830952Y-94924809D01*
X108830952Y-94924809D02*
X108878571Y-94948619D01*
X108878571Y-94948619D02*
X108902381Y-94972428D01*
X108902381Y-94972428D02*
X108926190Y-95020047D01*
X108926190Y-95020047D02*
X108926190Y-95139095D01*
X108926190Y-95139095D02*
X108902381Y-95186714D01*
X108902381Y-95186714D02*
X108878571Y-95210523D01*
X108878571Y-95210523D02*
X108830952Y-95234333D01*
X108830952Y-95234333D02*
X108735714Y-95234333D01*
X108735714Y-95234333D02*
X108688095Y-95210523D01*
X108688095Y-95210523D02*
X108664286Y-95186714D01*
X108664286Y-95186714D02*
X108640476Y-95139095D01*
X103757141Y-98274809D02*
X103471427Y-98274809D01*
X103614284Y-98774809D02*
X103614284Y-98274809D01*
X103304761Y-98774809D02*
X103304761Y-98274809D01*
X103304761Y-98274809D02*
X103114285Y-98274809D01*
X103114285Y-98274809D02*
X103066666Y-98298619D01*
X103066666Y-98298619D02*
X103042856Y-98322428D01*
X103042856Y-98322428D02*
X103019047Y-98370047D01*
X103019047Y-98370047D02*
X103019047Y-98441476D01*
X103019047Y-98441476D02*
X103042856Y-98489095D01*
X103042856Y-98489095D02*
X103066666Y-98512904D01*
X103066666Y-98512904D02*
X103114285Y-98536714D01*
X103114285Y-98536714D02*
X103304761Y-98536714D01*
X102542856Y-98774809D02*
X102828570Y-98774809D01*
X102685713Y-98774809D02*
X102685713Y-98274809D01*
X102685713Y-98274809D02*
X102733332Y-98346238D01*
X102733332Y-98346238D02*
X102780951Y-98393857D01*
X102780951Y-98393857D02*
X102828570Y-98417666D01*
X102352380Y-98322428D02*
X102328571Y-98298619D01*
X102328571Y-98298619D02*
X102280952Y-98274809D01*
X102280952Y-98274809D02*
X102161904Y-98274809D01*
X102161904Y-98274809D02*
X102114285Y-98298619D01*
X102114285Y-98298619D02*
X102090476Y-98322428D01*
X102090476Y-98322428D02*
X102066666Y-98370047D01*
X102066666Y-98370047D02*
X102066666Y-98417666D01*
X102066666Y-98417666D02*
X102090476Y-98489095D01*
X102090476Y-98489095D02*
X102376190Y-98774809D01*
X102376190Y-98774809D02*
X102066666Y-98774809D01*
X101900000Y-98274809D02*
X101566667Y-98274809D01*
X101566667Y-98274809D02*
X101780952Y-98774809D01*
X101724809Y-88242858D02*
X101724809Y-88528572D01*
X102224809Y-88385715D02*
X101724809Y-88385715D01*
X102224809Y-88695238D02*
X101724809Y-88695238D01*
X101724809Y-88695238D02*
X101724809Y-88885714D01*
X101724809Y-88885714D02*
X101748619Y-88933333D01*
X101748619Y-88933333D02*
X101772428Y-88957143D01*
X101772428Y-88957143D02*
X101820047Y-88980952D01*
X101820047Y-88980952D02*
X101891476Y-88980952D01*
X101891476Y-88980952D02*
X101939095Y-88957143D01*
X101939095Y-88957143D02*
X101962904Y-88933333D01*
X101962904Y-88933333D02*
X101986714Y-88885714D01*
X101986714Y-88885714D02*
X101986714Y-88695238D01*
X102224809Y-89457143D02*
X102224809Y-89171429D01*
X102224809Y-89314286D02*
X101724809Y-89314286D01*
X101724809Y-89314286D02*
X101796238Y-89266667D01*
X101796238Y-89266667D02*
X101843857Y-89219048D01*
X101843857Y-89219048D02*
X101867666Y-89171429D01*
X102224809Y-89933333D02*
X102224809Y-89647619D01*
X102224809Y-89790476D02*
X101724809Y-89790476D01*
X101724809Y-89790476D02*
X101796238Y-89742857D01*
X101796238Y-89742857D02*
X101843857Y-89695238D01*
X101843857Y-89695238D02*
X101867666Y-89647619D01*
X101724809Y-90361904D02*
X101724809Y-90266666D01*
X101724809Y-90266666D02*
X101748619Y-90219047D01*
X101748619Y-90219047D02*
X101772428Y-90195237D01*
X101772428Y-90195237D02*
X101843857Y-90147618D01*
X101843857Y-90147618D02*
X101939095Y-90123809D01*
X101939095Y-90123809D02*
X102129571Y-90123809D01*
X102129571Y-90123809D02*
X102177190Y-90147618D01*
X102177190Y-90147618D02*
X102201000Y-90171428D01*
X102201000Y-90171428D02*
X102224809Y-90219047D01*
X102224809Y-90219047D02*
X102224809Y-90314285D01*
X102224809Y-90314285D02*
X102201000Y-90361904D01*
X102201000Y-90361904D02*
X102177190Y-90385713D01*
X102177190Y-90385713D02*
X102129571Y-90409523D01*
X102129571Y-90409523D02*
X102010523Y-90409523D01*
X102010523Y-90409523D02*
X101962904Y-90385713D01*
X101962904Y-90385713D02*
X101939095Y-90361904D01*
X101939095Y-90361904D02*
X101915285Y-90314285D01*
X101915285Y-90314285D02*
X101915285Y-90219047D01*
X101915285Y-90219047D02*
X101939095Y-90171428D01*
X101939095Y-90171428D02*
X101962904Y-90147618D01*
X101962904Y-90147618D02*
X102010523Y-90123809D01*
X92469046Y-88724809D02*
X92183332Y-88724809D01*
X92326189Y-89224809D02*
X92326189Y-88724809D01*
X92016666Y-89224809D02*
X92016666Y-88724809D01*
X92016666Y-88724809D02*
X91826190Y-88724809D01*
X91826190Y-88724809D02*
X91778571Y-88748619D01*
X91778571Y-88748619D02*
X91754761Y-88772428D01*
X91754761Y-88772428D02*
X91730952Y-88820047D01*
X91730952Y-88820047D02*
X91730952Y-88891476D01*
X91730952Y-88891476D02*
X91754761Y-88939095D01*
X91754761Y-88939095D02*
X91778571Y-88962904D01*
X91778571Y-88962904D02*
X91826190Y-88986714D01*
X91826190Y-88986714D02*
X92016666Y-88986714D01*
X91492856Y-89224809D02*
X91397618Y-89224809D01*
X91397618Y-89224809D02*
X91349999Y-89201000D01*
X91349999Y-89201000D02*
X91326190Y-89177190D01*
X91326190Y-89177190D02*
X91278571Y-89105761D01*
X91278571Y-89105761D02*
X91254761Y-89010523D01*
X91254761Y-89010523D02*
X91254761Y-88820047D01*
X91254761Y-88820047D02*
X91278571Y-88772428D01*
X91278571Y-88772428D02*
X91302380Y-88748619D01*
X91302380Y-88748619D02*
X91349999Y-88724809D01*
X91349999Y-88724809D02*
X91445237Y-88724809D01*
X91445237Y-88724809D02*
X91492856Y-88748619D01*
X91492856Y-88748619D02*
X91516666Y-88772428D01*
X91516666Y-88772428D02*
X91540475Y-88820047D01*
X91540475Y-88820047D02*
X91540475Y-88939095D01*
X91540475Y-88939095D02*
X91516666Y-88986714D01*
X91516666Y-88986714D02*
X91492856Y-89010523D01*
X91492856Y-89010523D02*
X91445237Y-89034333D01*
X91445237Y-89034333D02*
X91349999Y-89034333D01*
X91349999Y-89034333D02*
X91302380Y-89010523D01*
X91302380Y-89010523D02*
X91278571Y-88986714D01*
X91278571Y-88986714D02*
X91254761Y-88939095D01*
X90826190Y-88891476D02*
X90826190Y-89224809D01*
X90945238Y-88701000D02*
X91064285Y-89058142D01*
X91064285Y-89058142D02*
X90754762Y-89058142D01*
X94624809Y-99292858D02*
X94624809Y-99578572D01*
X95124809Y-99435715D02*
X94624809Y-99435715D01*
X95124809Y-99745238D02*
X94624809Y-99745238D01*
X94624809Y-99745238D02*
X94624809Y-99935714D01*
X94624809Y-99935714D02*
X94648619Y-99983333D01*
X94648619Y-99983333D02*
X94672428Y-100007143D01*
X94672428Y-100007143D02*
X94720047Y-100030952D01*
X94720047Y-100030952D02*
X94791476Y-100030952D01*
X94791476Y-100030952D02*
X94839095Y-100007143D01*
X94839095Y-100007143D02*
X94862904Y-99983333D01*
X94862904Y-99983333D02*
X94886714Y-99935714D01*
X94886714Y-99935714D02*
X94886714Y-99745238D01*
X95124809Y-100507143D02*
X95124809Y-100221429D01*
X95124809Y-100364286D02*
X94624809Y-100364286D01*
X94624809Y-100364286D02*
X94696238Y-100316667D01*
X94696238Y-100316667D02*
X94743857Y-100269048D01*
X94743857Y-100269048D02*
X94767666Y-100221429D01*
X94624809Y-100673809D02*
X94624809Y-100983333D01*
X94624809Y-100983333D02*
X94815285Y-100816666D01*
X94815285Y-100816666D02*
X94815285Y-100888095D01*
X94815285Y-100888095D02*
X94839095Y-100935714D01*
X94839095Y-100935714D02*
X94862904Y-100959523D01*
X94862904Y-100959523D02*
X94910523Y-100983333D01*
X94910523Y-100983333D02*
X95029571Y-100983333D01*
X95029571Y-100983333D02*
X95077190Y-100959523D01*
X95077190Y-100959523D02*
X95101000Y-100935714D01*
X95101000Y-100935714D02*
X95124809Y-100888095D01*
X95124809Y-100888095D02*
X95124809Y-100745238D01*
X95124809Y-100745238D02*
X95101000Y-100697619D01*
X95101000Y-100697619D02*
X95077190Y-100673809D01*
X94624809Y-101292856D02*
X94624809Y-101340475D01*
X94624809Y-101340475D02*
X94648619Y-101388094D01*
X94648619Y-101388094D02*
X94672428Y-101411904D01*
X94672428Y-101411904D02*
X94720047Y-101435713D01*
X94720047Y-101435713D02*
X94815285Y-101459523D01*
X94815285Y-101459523D02*
X94934333Y-101459523D01*
X94934333Y-101459523D02*
X95029571Y-101435713D01*
X95029571Y-101435713D02*
X95077190Y-101411904D01*
X95077190Y-101411904D02*
X95101000Y-101388094D01*
X95101000Y-101388094D02*
X95124809Y-101340475D01*
X95124809Y-101340475D02*
X95124809Y-101292856D01*
X95124809Y-101292856D02*
X95101000Y-101245237D01*
X95101000Y-101245237D02*
X95077190Y-101221428D01*
X95077190Y-101221428D02*
X95029571Y-101197618D01*
X95029571Y-101197618D02*
X94934333Y-101173809D01*
X94934333Y-101173809D02*
X94815285Y-101173809D01*
X94815285Y-101173809D02*
X94720047Y-101197618D01*
X94720047Y-101197618D02*
X94672428Y-101221428D01*
X94672428Y-101221428D02*
X94648619Y-101245237D01*
X94648619Y-101245237D02*
X94624809Y-101292856D01*
X100974809Y-91130953D02*
X100974809Y-91416667D01*
X101474809Y-91273810D02*
X100974809Y-91273810D01*
X101474809Y-91583333D02*
X100974809Y-91583333D01*
X100974809Y-91583333D02*
X100974809Y-91773809D01*
X100974809Y-91773809D02*
X100998619Y-91821428D01*
X100998619Y-91821428D02*
X101022428Y-91845238D01*
X101022428Y-91845238D02*
X101070047Y-91869047D01*
X101070047Y-91869047D02*
X101141476Y-91869047D01*
X101141476Y-91869047D02*
X101189095Y-91845238D01*
X101189095Y-91845238D02*
X101212904Y-91821428D01*
X101212904Y-91821428D02*
X101236714Y-91773809D01*
X101236714Y-91773809D02*
X101236714Y-91583333D01*
X101022428Y-92059524D02*
X100998619Y-92083333D01*
X100998619Y-92083333D02*
X100974809Y-92130952D01*
X100974809Y-92130952D02*
X100974809Y-92250000D01*
X100974809Y-92250000D02*
X100998619Y-92297619D01*
X100998619Y-92297619D02*
X101022428Y-92321428D01*
X101022428Y-92321428D02*
X101070047Y-92345238D01*
X101070047Y-92345238D02*
X101117666Y-92345238D01*
X101117666Y-92345238D02*
X101189095Y-92321428D01*
X101189095Y-92321428D02*
X101474809Y-92035714D01*
X101474809Y-92035714D02*
X101474809Y-92345238D01*
X101474809Y-92821428D02*
X101474809Y-92535714D01*
X101474809Y-92678571D02*
X100974809Y-92678571D01*
X100974809Y-92678571D02*
X101046238Y-92630952D01*
X101046238Y-92630952D02*
X101093857Y-92583333D01*
X101093857Y-92583333D02*
X101117666Y-92535714D01*
X110257141Y-99574809D02*
X109971427Y-99574809D01*
X110114284Y-100074809D02*
X110114284Y-99574809D01*
X109804761Y-100074809D02*
X109804761Y-99574809D01*
X109804761Y-99574809D02*
X109614285Y-99574809D01*
X109614285Y-99574809D02*
X109566666Y-99598619D01*
X109566666Y-99598619D02*
X109542856Y-99622428D01*
X109542856Y-99622428D02*
X109519047Y-99670047D01*
X109519047Y-99670047D02*
X109519047Y-99741476D01*
X109519047Y-99741476D02*
X109542856Y-99789095D01*
X109542856Y-99789095D02*
X109566666Y-99812904D01*
X109566666Y-99812904D02*
X109614285Y-99836714D01*
X109614285Y-99836714D02*
X109804761Y-99836714D01*
X109042856Y-100074809D02*
X109328570Y-100074809D01*
X109185713Y-100074809D02*
X109185713Y-99574809D01*
X109185713Y-99574809D02*
X109233332Y-99646238D01*
X109233332Y-99646238D02*
X109280951Y-99693857D01*
X109280951Y-99693857D02*
X109328570Y-99717666D01*
X108733333Y-99574809D02*
X108685714Y-99574809D01*
X108685714Y-99574809D02*
X108638095Y-99598619D01*
X108638095Y-99598619D02*
X108614285Y-99622428D01*
X108614285Y-99622428D02*
X108590476Y-99670047D01*
X108590476Y-99670047D02*
X108566666Y-99765285D01*
X108566666Y-99765285D02*
X108566666Y-99884333D01*
X108566666Y-99884333D02*
X108590476Y-99979571D01*
X108590476Y-99979571D02*
X108614285Y-100027190D01*
X108614285Y-100027190D02*
X108638095Y-100051000D01*
X108638095Y-100051000D02*
X108685714Y-100074809D01*
X108685714Y-100074809D02*
X108733333Y-100074809D01*
X108733333Y-100074809D02*
X108780952Y-100051000D01*
X108780952Y-100051000D02*
X108804761Y-100027190D01*
X108804761Y-100027190D02*
X108828571Y-99979571D01*
X108828571Y-99979571D02*
X108852380Y-99884333D01*
X108852380Y-99884333D02*
X108852380Y-99765285D01*
X108852380Y-99765285D02*
X108828571Y-99670047D01*
X108828571Y-99670047D02*
X108804761Y-99622428D01*
X108804761Y-99622428D02*
X108780952Y-99598619D01*
X108780952Y-99598619D02*
X108733333Y-99574809D01*
X108257143Y-99574809D02*
X108209524Y-99574809D01*
X108209524Y-99574809D02*
X108161905Y-99598619D01*
X108161905Y-99598619D02*
X108138095Y-99622428D01*
X108138095Y-99622428D02*
X108114286Y-99670047D01*
X108114286Y-99670047D02*
X108090476Y-99765285D01*
X108090476Y-99765285D02*
X108090476Y-99884333D01*
X108090476Y-99884333D02*
X108114286Y-99979571D01*
X108114286Y-99979571D02*
X108138095Y-100027190D01*
X108138095Y-100027190D02*
X108161905Y-100051000D01*
X108161905Y-100051000D02*
X108209524Y-100074809D01*
X108209524Y-100074809D02*
X108257143Y-100074809D01*
X108257143Y-100074809D02*
X108304762Y-100051000D01*
X108304762Y-100051000D02*
X108328571Y-100027190D01*
X108328571Y-100027190D02*
X108352381Y-99979571D01*
X108352381Y-99979571D02*
X108376190Y-99884333D01*
X108376190Y-99884333D02*
X108376190Y-99765285D01*
X108376190Y-99765285D02*
X108352381Y-99670047D01*
X108352381Y-99670047D02*
X108328571Y-99622428D01*
X108328571Y-99622428D02*
X108304762Y-99598619D01*
X108304762Y-99598619D02*
X108257143Y-99574809D01*
X110557141Y-88924809D02*
X110271427Y-88924809D01*
X110414284Y-89424809D02*
X110414284Y-88924809D01*
X110104761Y-89424809D02*
X110104761Y-88924809D01*
X110104761Y-88924809D02*
X109914285Y-88924809D01*
X109914285Y-88924809D02*
X109866666Y-88948619D01*
X109866666Y-88948619D02*
X109842856Y-88972428D01*
X109842856Y-88972428D02*
X109819047Y-89020047D01*
X109819047Y-89020047D02*
X109819047Y-89091476D01*
X109819047Y-89091476D02*
X109842856Y-89139095D01*
X109842856Y-89139095D02*
X109866666Y-89162904D01*
X109866666Y-89162904D02*
X109914285Y-89186714D01*
X109914285Y-89186714D02*
X110104761Y-89186714D01*
X109342856Y-89424809D02*
X109628570Y-89424809D01*
X109485713Y-89424809D02*
X109485713Y-88924809D01*
X109485713Y-88924809D02*
X109533332Y-88996238D01*
X109533332Y-88996238D02*
X109580951Y-89043857D01*
X109580951Y-89043857D02*
X109628570Y-89067666D01*
X108866666Y-89424809D02*
X109152380Y-89424809D01*
X109009523Y-89424809D02*
X109009523Y-88924809D01*
X109009523Y-88924809D02*
X109057142Y-88996238D01*
X109057142Y-88996238D02*
X109104761Y-89043857D01*
X109104761Y-89043857D02*
X109152380Y-89067666D01*
X108700000Y-88924809D02*
X108366667Y-88924809D01*
X108366667Y-88924809D02*
X108580952Y-89424809D01*
X95519046Y-102624809D02*
X95233332Y-102624809D01*
X95376189Y-103124809D02*
X95376189Y-102624809D01*
X95066666Y-103124809D02*
X95066666Y-102624809D01*
X95066666Y-102624809D02*
X94876190Y-102624809D01*
X94876190Y-102624809D02*
X94828571Y-102648619D01*
X94828571Y-102648619D02*
X94804761Y-102672428D01*
X94804761Y-102672428D02*
X94780952Y-102720047D01*
X94780952Y-102720047D02*
X94780952Y-102791476D01*
X94780952Y-102791476D02*
X94804761Y-102839095D01*
X94804761Y-102839095D02*
X94828571Y-102862904D01*
X94828571Y-102862904D02*
X94876190Y-102886714D01*
X94876190Y-102886714D02*
X95066666Y-102886714D01*
X94352380Y-102791476D02*
X94352380Y-103124809D01*
X94471428Y-102601000D02*
X94590475Y-102958142D01*
X94590475Y-102958142D02*
X94280952Y-102958142D01*
X94019047Y-102839095D02*
X94066666Y-102815285D01*
X94066666Y-102815285D02*
X94090476Y-102791476D01*
X94090476Y-102791476D02*
X94114285Y-102743857D01*
X94114285Y-102743857D02*
X94114285Y-102720047D01*
X94114285Y-102720047D02*
X94090476Y-102672428D01*
X94090476Y-102672428D02*
X94066666Y-102648619D01*
X94066666Y-102648619D02*
X94019047Y-102624809D01*
X94019047Y-102624809D02*
X93923809Y-102624809D01*
X93923809Y-102624809D02*
X93876190Y-102648619D01*
X93876190Y-102648619D02*
X93852381Y-102672428D01*
X93852381Y-102672428D02*
X93828571Y-102720047D01*
X93828571Y-102720047D02*
X93828571Y-102743857D01*
X93828571Y-102743857D02*
X93852381Y-102791476D01*
X93852381Y-102791476D02*
X93876190Y-102815285D01*
X93876190Y-102815285D02*
X93923809Y-102839095D01*
X93923809Y-102839095D02*
X94019047Y-102839095D01*
X94019047Y-102839095D02*
X94066666Y-102862904D01*
X94066666Y-102862904D02*
X94090476Y-102886714D01*
X94090476Y-102886714D02*
X94114285Y-102934333D01*
X94114285Y-102934333D02*
X94114285Y-103029571D01*
X94114285Y-103029571D02*
X94090476Y-103077190D01*
X94090476Y-103077190D02*
X94066666Y-103101000D01*
X94066666Y-103101000D02*
X94019047Y-103124809D01*
X94019047Y-103124809D02*
X93923809Y-103124809D01*
X93923809Y-103124809D02*
X93876190Y-103101000D01*
X93876190Y-103101000D02*
X93852381Y-103077190D01*
X93852381Y-103077190D02*
X93828571Y-103029571D01*
X93828571Y-103029571D02*
X93828571Y-102934333D01*
X93828571Y-102934333D02*
X93852381Y-102886714D01*
X93852381Y-102886714D02*
X93876190Y-102862904D01*
X93876190Y-102862904D02*
X93923809Y-102839095D01*
X103769046Y-97124809D02*
X103483332Y-97124809D01*
X103626189Y-97624809D02*
X103626189Y-97124809D01*
X103316666Y-97624809D02*
X103316666Y-97124809D01*
X103316666Y-97124809D02*
X103126190Y-97124809D01*
X103126190Y-97124809D02*
X103078571Y-97148619D01*
X103078571Y-97148619D02*
X103054761Y-97172428D01*
X103054761Y-97172428D02*
X103030952Y-97220047D01*
X103030952Y-97220047D02*
X103030952Y-97291476D01*
X103030952Y-97291476D02*
X103054761Y-97339095D01*
X103054761Y-97339095D02*
X103078571Y-97362904D01*
X103078571Y-97362904D02*
X103126190Y-97386714D01*
X103126190Y-97386714D02*
X103316666Y-97386714D01*
X102864285Y-97124809D02*
X102530952Y-97124809D01*
X102530952Y-97124809D02*
X102745237Y-97624809D01*
X102078571Y-97624809D02*
X102364285Y-97624809D01*
X102221428Y-97624809D02*
X102221428Y-97124809D01*
X102221428Y-97124809D02*
X102269047Y-97196238D01*
X102269047Y-97196238D02*
X102316666Y-97243857D01*
X102316666Y-97243857D02*
X102364285Y-97267666D01*
X108869046Y-93124809D02*
X108583332Y-93124809D01*
X108726189Y-93624809D02*
X108726189Y-93124809D01*
X108416666Y-93624809D02*
X108416666Y-93124809D01*
X108416666Y-93124809D02*
X108226190Y-93124809D01*
X108226190Y-93124809D02*
X108178571Y-93148619D01*
X108178571Y-93148619D02*
X108154761Y-93172428D01*
X108154761Y-93172428D02*
X108130952Y-93220047D01*
X108130952Y-93220047D02*
X108130952Y-93291476D01*
X108130952Y-93291476D02*
X108154761Y-93339095D01*
X108154761Y-93339095D02*
X108178571Y-93362904D01*
X108178571Y-93362904D02*
X108226190Y-93386714D01*
X108226190Y-93386714D02*
X108416666Y-93386714D01*
X107892856Y-93624809D02*
X107797618Y-93624809D01*
X107797618Y-93624809D02*
X107749999Y-93601000D01*
X107749999Y-93601000D02*
X107726190Y-93577190D01*
X107726190Y-93577190D02*
X107678571Y-93505761D01*
X107678571Y-93505761D02*
X107654761Y-93410523D01*
X107654761Y-93410523D02*
X107654761Y-93220047D01*
X107654761Y-93220047D02*
X107678571Y-93172428D01*
X107678571Y-93172428D02*
X107702380Y-93148619D01*
X107702380Y-93148619D02*
X107749999Y-93124809D01*
X107749999Y-93124809D02*
X107845237Y-93124809D01*
X107845237Y-93124809D02*
X107892856Y-93148619D01*
X107892856Y-93148619D02*
X107916666Y-93172428D01*
X107916666Y-93172428D02*
X107940475Y-93220047D01*
X107940475Y-93220047D02*
X107940475Y-93339095D01*
X107940475Y-93339095D02*
X107916666Y-93386714D01*
X107916666Y-93386714D02*
X107892856Y-93410523D01*
X107892856Y-93410523D02*
X107845237Y-93434333D01*
X107845237Y-93434333D02*
X107749999Y-93434333D01*
X107749999Y-93434333D02*
X107702380Y-93410523D01*
X107702380Y-93410523D02*
X107678571Y-93386714D01*
X107678571Y-93386714D02*
X107654761Y-93339095D01*
X107345238Y-93124809D02*
X107297619Y-93124809D01*
X107297619Y-93124809D02*
X107250000Y-93148619D01*
X107250000Y-93148619D02*
X107226190Y-93172428D01*
X107226190Y-93172428D02*
X107202381Y-93220047D01*
X107202381Y-93220047D02*
X107178571Y-93315285D01*
X107178571Y-93315285D02*
X107178571Y-93434333D01*
X107178571Y-93434333D02*
X107202381Y-93529571D01*
X107202381Y-93529571D02*
X107226190Y-93577190D01*
X107226190Y-93577190D02*
X107250000Y-93601000D01*
X107250000Y-93601000D02*
X107297619Y-93624809D01*
X107297619Y-93624809D02*
X107345238Y-93624809D01*
X107345238Y-93624809D02*
X107392857Y-93601000D01*
X107392857Y-93601000D02*
X107416666Y-93577190D01*
X107416666Y-93577190D02*
X107440476Y-93529571D01*
X107440476Y-93529571D02*
X107464285Y-93434333D01*
X107464285Y-93434333D02*
X107464285Y-93315285D01*
X107464285Y-93315285D02*
X107440476Y-93220047D01*
X107440476Y-93220047D02*
X107416666Y-93172428D01*
X107416666Y-93172428D02*
X107392857Y-93148619D01*
X107392857Y-93148619D02*
X107345238Y-93124809D01*
X105969046Y-93724809D02*
X105683332Y-93724809D01*
X105826189Y-94224809D02*
X105826189Y-93724809D01*
X105516666Y-94224809D02*
X105516666Y-93724809D01*
X105516666Y-93724809D02*
X105326190Y-93724809D01*
X105326190Y-93724809D02*
X105278571Y-93748619D01*
X105278571Y-93748619D02*
X105254761Y-93772428D01*
X105254761Y-93772428D02*
X105230952Y-93820047D01*
X105230952Y-93820047D02*
X105230952Y-93891476D01*
X105230952Y-93891476D02*
X105254761Y-93939095D01*
X105254761Y-93939095D02*
X105278571Y-93962904D01*
X105278571Y-93962904D02*
X105326190Y-93986714D01*
X105326190Y-93986714D02*
X105516666Y-93986714D01*
X105040475Y-93772428D02*
X105016666Y-93748619D01*
X105016666Y-93748619D02*
X104969047Y-93724809D01*
X104969047Y-93724809D02*
X104849999Y-93724809D01*
X104849999Y-93724809D02*
X104802380Y-93748619D01*
X104802380Y-93748619D02*
X104778571Y-93772428D01*
X104778571Y-93772428D02*
X104754761Y-93820047D01*
X104754761Y-93820047D02*
X104754761Y-93867666D01*
X104754761Y-93867666D02*
X104778571Y-93939095D01*
X104778571Y-93939095D02*
X105064285Y-94224809D01*
X105064285Y-94224809D02*
X104754761Y-94224809D01*
X104564285Y-93772428D02*
X104540476Y-93748619D01*
X104540476Y-93748619D02*
X104492857Y-93724809D01*
X104492857Y-93724809D02*
X104373809Y-93724809D01*
X104373809Y-93724809D02*
X104326190Y-93748619D01*
X104326190Y-93748619D02*
X104302381Y-93772428D01*
X104302381Y-93772428D02*
X104278571Y-93820047D01*
X104278571Y-93820047D02*
X104278571Y-93867666D01*
X104278571Y-93867666D02*
X104302381Y-93939095D01*
X104302381Y-93939095D02*
X104588095Y-94224809D01*
X104588095Y-94224809D02*
X104278571Y-94224809D01*
X87919046Y-88774809D02*
X87633332Y-88774809D01*
X87776189Y-89274809D02*
X87776189Y-88774809D01*
X87466666Y-89274809D02*
X87466666Y-88774809D01*
X87466666Y-88774809D02*
X87276190Y-88774809D01*
X87276190Y-88774809D02*
X87228571Y-88798619D01*
X87228571Y-88798619D02*
X87204761Y-88822428D01*
X87204761Y-88822428D02*
X87180952Y-88870047D01*
X87180952Y-88870047D02*
X87180952Y-88941476D01*
X87180952Y-88941476D02*
X87204761Y-88989095D01*
X87204761Y-88989095D02*
X87228571Y-89012904D01*
X87228571Y-89012904D02*
X87276190Y-89036714D01*
X87276190Y-89036714D02*
X87466666Y-89036714D01*
X86942856Y-89274809D02*
X86847618Y-89274809D01*
X86847618Y-89274809D02*
X86799999Y-89251000D01*
X86799999Y-89251000D02*
X86776190Y-89227190D01*
X86776190Y-89227190D02*
X86728571Y-89155761D01*
X86728571Y-89155761D02*
X86704761Y-89060523D01*
X86704761Y-89060523D02*
X86704761Y-88870047D01*
X86704761Y-88870047D02*
X86728571Y-88822428D01*
X86728571Y-88822428D02*
X86752380Y-88798619D01*
X86752380Y-88798619D02*
X86799999Y-88774809D01*
X86799999Y-88774809D02*
X86895237Y-88774809D01*
X86895237Y-88774809D02*
X86942856Y-88798619D01*
X86942856Y-88798619D02*
X86966666Y-88822428D01*
X86966666Y-88822428D02*
X86990475Y-88870047D01*
X86990475Y-88870047D02*
X86990475Y-88989095D01*
X86990475Y-88989095D02*
X86966666Y-89036714D01*
X86966666Y-89036714D02*
X86942856Y-89060523D01*
X86942856Y-89060523D02*
X86895237Y-89084333D01*
X86895237Y-89084333D02*
X86799999Y-89084333D01*
X86799999Y-89084333D02*
X86752380Y-89060523D01*
X86752380Y-89060523D02*
X86728571Y-89036714D01*
X86728571Y-89036714D02*
X86704761Y-88989095D01*
X86538095Y-88774809D02*
X86228571Y-88774809D01*
X86228571Y-88774809D02*
X86395238Y-88965285D01*
X86395238Y-88965285D02*
X86323809Y-88965285D01*
X86323809Y-88965285D02*
X86276190Y-88989095D01*
X86276190Y-88989095D02*
X86252381Y-89012904D01*
X86252381Y-89012904D02*
X86228571Y-89060523D01*
X86228571Y-89060523D02*
X86228571Y-89179571D01*
X86228571Y-89179571D02*
X86252381Y-89227190D01*
X86252381Y-89227190D02*
X86276190Y-89251000D01*
X86276190Y-89251000D02*
X86323809Y-89274809D01*
X86323809Y-89274809D02*
X86466666Y-89274809D01*
X86466666Y-89274809D02*
X86514285Y-89251000D01*
X86514285Y-89251000D02*
X86538095Y-89227190D01*
X103769046Y-99624809D02*
X103483332Y-99624809D01*
X103626189Y-100124809D02*
X103626189Y-99624809D01*
X103316666Y-100124809D02*
X103316666Y-99624809D01*
X103316666Y-99624809D02*
X103126190Y-99624809D01*
X103126190Y-99624809D02*
X103078571Y-99648619D01*
X103078571Y-99648619D02*
X103054761Y-99672428D01*
X103054761Y-99672428D02*
X103030952Y-99720047D01*
X103030952Y-99720047D02*
X103030952Y-99791476D01*
X103030952Y-99791476D02*
X103054761Y-99839095D01*
X103054761Y-99839095D02*
X103078571Y-99862904D01*
X103078571Y-99862904D02*
X103126190Y-99886714D01*
X103126190Y-99886714D02*
X103316666Y-99886714D01*
X102864285Y-99624809D02*
X102530952Y-99624809D01*
X102530952Y-99624809D02*
X102745237Y-100124809D01*
X102245238Y-99624809D02*
X102197619Y-99624809D01*
X102197619Y-99624809D02*
X102150000Y-99648619D01*
X102150000Y-99648619D02*
X102126190Y-99672428D01*
X102126190Y-99672428D02*
X102102381Y-99720047D01*
X102102381Y-99720047D02*
X102078571Y-99815285D01*
X102078571Y-99815285D02*
X102078571Y-99934333D01*
X102078571Y-99934333D02*
X102102381Y-100029571D01*
X102102381Y-100029571D02*
X102126190Y-100077190D01*
X102126190Y-100077190D02*
X102150000Y-100101000D01*
X102150000Y-100101000D02*
X102197619Y-100124809D01*
X102197619Y-100124809D02*
X102245238Y-100124809D01*
X102245238Y-100124809D02*
X102292857Y-100101000D01*
X102292857Y-100101000D02*
X102316666Y-100077190D01*
X102316666Y-100077190D02*
X102340476Y-100029571D01*
X102340476Y-100029571D02*
X102364285Y-99934333D01*
X102364285Y-99934333D02*
X102364285Y-99815285D01*
X102364285Y-99815285D02*
X102340476Y-99720047D01*
X102340476Y-99720047D02*
X102316666Y-99672428D01*
X102316666Y-99672428D02*
X102292857Y-99648619D01*
X102292857Y-99648619D02*
X102245238Y-99624809D01*
X106774809Y-96080953D02*
X106774809Y-96366667D01*
X107274809Y-96223810D02*
X106774809Y-96223810D01*
X107274809Y-96533333D02*
X106774809Y-96533333D01*
X106774809Y-96533333D02*
X106774809Y-96723809D01*
X106774809Y-96723809D02*
X106798619Y-96771428D01*
X106798619Y-96771428D02*
X106822428Y-96795238D01*
X106822428Y-96795238D02*
X106870047Y-96819047D01*
X106870047Y-96819047D02*
X106941476Y-96819047D01*
X106941476Y-96819047D02*
X106989095Y-96795238D01*
X106989095Y-96795238D02*
X107012904Y-96771428D01*
X107012904Y-96771428D02*
X107036714Y-96723809D01*
X107036714Y-96723809D02*
X107036714Y-96533333D01*
X107274809Y-97057143D02*
X107274809Y-97152381D01*
X107274809Y-97152381D02*
X107251000Y-97200000D01*
X107251000Y-97200000D02*
X107227190Y-97223809D01*
X107227190Y-97223809D02*
X107155761Y-97271428D01*
X107155761Y-97271428D02*
X107060523Y-97295238D01*
X107060523Y-97295238D02*
X106870047Y-97295238D01*
X106870047Y-97295238D02*
X106822428Y-97271428D01*
X106822428Y-97271428D02*
X106798619Y-97247619D01*
X106798619Y-97247619D02*
X106774809Y-97200000D01*
X106774809Y-97200000D02*
X106774809Y-97104762D01*
X106774809Y-97104762D02*
X106798619Y-97057143D01*
X106798619Y-97057143D02*
X106822428Y-97033333D01*
X106822428Y-97033333D02*
X106870047Y-97009524D01*
X106870047Y-97009524D02*
X106989095Y-97009524D01*
X106989095Y-97009524D02*
X107036714Y-97033333D01*
X107036714Y-97033333D02*
X107060523Y-97057143D01*
X107060523Y-97057143D02*
X107084333Y-97104762D01*
X107084333Y-97104762D02*
X107084333Y-97200000D01*
X107084333Y-97200000D02*
X107060523Y-97247619D01*
X107060523Y-97247619D02*
X107036714Y-97271428D01*
X107036714Y-97271428D02*
X106989095Y-97295238D01*
X106774809Y-97461904D02*
X106774809Y-97795237D01*
X106774809Y-97795237D02*
X107274809Y-97580952D01*
X99974809Y-97392858D02*
X99974809Y-97678572D01*
X100474809Y-97535715D02*
X99974809Y-97535715D01*
X100474809Y-97845238D02*
X99974809Y-97845238D01*
X99974809Y-97845238D02*
X99974809Y-98035714D01*
X99974809Y-98035714D02*
X99998619Y-98083333D01*
X99998619Y-98083333D02*
X100022428Y-98107143D01*
X100022428Y-98107143D02*
X100070047Y-98130952D01*
X100070047Y-98130952D02*
X100141476Y-98130952D01*
X100141476Y-98130952D02*
X100189095Y-98107143D01*
X100189095Y-98107143D02*
X100212904Y-98083333D01*
X100212904Y-98083333D02*
X100236714Y-98035714D01*
X100236714Y-98035714D02*
X100236714Y-97845238D01*
X100474809Y-98607143D02*
X100474809Y-98321429D01*
X100474809Y-98464286D02*
X99974809Y-98464286D01*
X99974809Y-98464286D02*
X100046238Y-98416667D01*
X100046238Y-98416667D02*
X100093857Y-98369048D01*
X100093857Y-98369048D02*
X100117666Y-98321429D01*
X100022428Y-98797619D02*
X99998619Y-98821428D01*
X99998619Y-98821428D02*
X99974809Y-98869047D01*
X99974809Y-98869047D02*
X99974809Y-98988095D01*
X99974809Y-98988095D02*
X99998619Y-99035714D01*
X99998619Y-99035714D02*
X100022428Y-99059523D01*
X100022428Y-99059523D02*
X100070047Y-99083333D01*
X100070047Y-99083333D02*
X100117666Y-99083333D01*
X100117666Y-99083333D02*
X100189095Y-99059523D01*
X100189095Y-99059523D02*
X100474809Y-98773809D01*
X100474809Y-98773809D02*
X100474809Y-99083333D01*
X100474809Y-99321428D02*
X100474809Y-99416666D01*
X100474809Y-99416666D02*
X100451000Y-99464285D01*
X100451000Y-99464285D02*
X100427190Y-99488094D01*
X100427190Y-99488094D02*
X100355761Y-99535713D01*
X100355761Y-99535713D02*
X100260523Y-99559523D01*
X100260523Y-99559523D02*
X100070047Y-99559523D01*
X100070047Y-99559523D02*
X100022428Y-99535713D01*
X100022428Y-99535713D02*
X99998619Y-99511904D01*
X99998619Y-99511904D02*
X99974809Y-99464285D01*
X99974809Y-99464285D02*
X99974809Y-99369047D01*
X99974809Y-99369047D02*
X99998619Y-99321428D01*
X99998619Y-99321428D02*
X100022428Y-99297618D01*
X100022428Y-99297618D02*
X100070047Y-99273809D01*
X100070047Y-99273809D02*
X100189095Y-99273809D01*
X100189095Y-99273809D02*
X100236714Y-99297618D01*
X100236714Y-99297618D02*
X100260523Y-99321428D01*
X100260523Y-99321428D02*
X100284333Y-99369047D01*
X100284333Y-99369047D02*
X100284333Y-99464285D01*
X100284333Y-99464285D02*
X100260523Y-99511904D01*
X100260523Y-99511904D02*
X100236714Y-99535713D01*
X100236714Y-99535713D02*
X100189095Y-99559523D01*
X92174809Y-102480953D02*
X92174809Y-102766667D01*
X92674809Y-102623810D02*
X92174809Y-102623810D01*
X92674809Y-102933333D02*
X92174809Y-102933333D01*
X92174809Y-102933333D02*
X92174809Y-103123809D01*
X92174809Y-103123809D02*
X92198619Y-103171428D01*
X92198619Y-103171428D02*
X92222428Y-103195238D01*
X92222428Y-103195238D02*
X92270047Y-103219047D01*
X92270047Y-103219047D02*
X92341476Y-103219047D01*
X92341476Y-103219047D02*
X92389095Y-103195238D01*
X92389095Y-103195238D02*
X92412904Y-103171428D01*
X92412904Y-103171428D02*
X92436714Y-103123809D01*
X92436714Y-103123809D02*
X92436714Y-102933333D01*
X92341476Y-103647619D02*
X92674809Y-103647619D01*
X92151000Y-103528571D02*
X92508142Y-103409524D01*
X92508142Y-103409524D02*
X92508142Y-103719047D01*
X92174809Y-103861904D02*
X92174809Y-104195237D01*
X92174809Y-104195237D02*
X92674809Y-103980952D01*
X106669046Y-100674809D02*
X106383332Y-100674809D01*
X106526189Y-101174809D02*
X106526189Y-100674809D01*
X106216666Y-101174809D02*
X106216666Y-100674809D01*
X106216666Y-100674809D02*
X106026190Y-100674809D01*
X106026190Y-100674809D02*
X105978571Y-100698619D01*
X105978571Y-100698619D02*
X105954761Y-100722428D01*
X105954761Y-100722428D02*
X105930952Y-100770047D01*
X105930952Y-100770047D02*
X105930952Y-100841476D01*
X105930952Y-100841476D02*
X105954761Y-100889095D01*
X105954761Y-100889095D02*
X105978571Y-100912904D01*
X105978571Y-100912904D02*
X106026190Y-100936714D01*
X106026190Y-100936714D02*
X106216666Y-100936714D01*
X105764285Y-100674809D02*
X105430952Y-100674809D01*
X105430952Y-100674809D02*
X105645237Y-101174809D01*
X105264285Y-100722428D02*
X105240476Y-100698619D01*
X105240476Y-100698619D02*
X105192857Y-100674809D01*
X105192857Y-100674809D02*
X105073809Y-100674809D01*
X105073809Y-100674809D02*
X105026190Y-100698619D01*
X105026190Y-100698619D02*
X105002381Y-100722428D01*
X105002381Y-100722428D02*
X104978571Y-100770047D01*
X104978571Y-100770047D02*
X104978571Y-100817666D01*
X104978571Y-100817666D02*
X105002381Y-100889095D01*
X105002381Y-100889095D02*
X105288095Y-101174809D01*
X105288095Y-101174809D02*
X104978571Y-101174809D01*
X105369046Y-80424809D02*
X105083332Y-80424809D01*
X105226189Y-80924809D02*
X105226189Y-80424809D01*
X104916666Y-80924809D02*
X104916666Y-80424809D01*
X104916666Y-80424809D02*
X104726190Y-80424809D01*
X104726190Y-80424809D02*
X104678571Y-80448619D01*
X104678571Y-80448619D02*
X104654761Y-80472428D01*
X104654761Y-80472428D02*
X104630952Y-80520047D01*
X104630952Y-80520047D02*
X104630952Y-80591476D01*
X104630952Y-80591476D02*
X104654761Y-80639095D01*
X104654761Y-80639095D02*
X104678571Y-80662904D01*
X104678571Y-80662904D02*
X104726190Y-80686714D01*
X104726190Y-80686714D02*
X104916666Y-80686714D01*
X104464285Y-80424809D02*
X104130952Y-80424809D01*
X104130952Y-80424809D02*
X104345237Y-80924809D01*
X103726190Y-80591476D02*
X103726190Y-80924809D01*
X103845238Y-80401000D02*
X103964285Y-80758142D01*
X103964285Y-80758142D02*
X103654762Y-80758142D01*
X100924809Y-88242858D02*
X100924809Y-88528572D01*
X101424809Y-88385715D02*
X100924809Y-88385715D01*
X101424809Y-88695238D02*
X100924809Y-88695238D01*
X100924809Y-88695238D02*
X100924809Y-88885714D01*
X100924809Y-88885714D02*
X100948619Y-88933333D01*
X100948619Y-88933333D02*
X100972428Y-88957143D01*
X100972428Y-88957143D02*
X101020047Y-88980952D01*
X101020047Y-88980952D02*
X101091476Y-88980952D01*
X101091476Y-88980952D02*
X101139095Y-88957143D01*
X101139095Y-88957143D02*
X101162904Y-88933333D01*
X101162904Y-88933333D02*
X101186714Y-88885714D01*
X101186714Y-88885714D02*
X101186714Y-88695238D01*
X101424809Y-89457143D02*
X101424809Y-89171429D01*
X101424809Y-89314286D02*
X100924809Y-89314286D01*
X100924809Y-89314286D02*
X100996238Y-89266667D01*
X100996238Y-89266667D02*
X101043857Y-89219048D01*
X101043857Y-89219048D02*
X101067666Y-89171429D01*
X100924809Y-89623809D02*
X100924809Y-89933333D01*
X100924809Y-89933333D02*
X101115285Y-89766666D01*
X101115285Y-89766666D02*
X101115285Y-89838095D01*
X101115285Y-89838095D02*
X101139095Y-89885714D01*
X101139095Y-89885714D02*
X101162904Y-89909523D01*
X101162904Y-89909523D02*
X101210523Y-89933333D01*
X101210523Y-89933333D02*
X101329571Y-89933333D01*
X101329571Y-89933333D02*
X101377190Y-89909523D01*
X101377190Y-89909523D02*
X101401000Y-89885714D01*
X101401000Y-89885714D02*
X101424809Y-89838095D01*
X101424809Y-89838095D02*
X101424809Y-89695238D01*
X101424809Y-89695238D02*
X101401000Y-89647619D01*
X101401000Y-89647619D02*
X101377190Y-89623809D01*
X100924809Y-90361904D02*
X100924809Y-90266666D01*
X100924809Y-90266666D02*
X100948619Y-90219047D01*
X100948619Y-90219047D02*
X100972428Y-90195237D01*
X100972428Y-90195237D02*
X101043857Y-90147618D01*
X101043857Y-90147618D02*
X101139095Y-90123809D01*
X101139095Y-90123809D02*
X101329571Y-90123809D01*
X101329571Y-90123809D02*
X101377190Y-90147618D01*
X101377190Y-90147618D02*
X101401000Y-90171428D01*
X101401000Y-90171428D02*
X101424809Y-90219047D01*
X101424809Y-90219047D02*
X101424809Y-90314285D01*
X101424809Y-90314285D02*
X101401000Y-90361904D01*
X101401000Y-90361904D02*
X101377190Y-90385713D01*
X101377190Y-90385713D02*
X101329571Y-90409523D01*
X101329571Y-90409523D02*
X101210523Y-90409523D01*
X101210523Y-90409523D02*
X101162904Y-90385713D01*
X101162904Y-90385713D02*
X101139095Y-90361904D01*
X101139095Y-90361904D02*
X101115285Y-90314285D01*
X101115285Y-90314285D02*
X101115285Y-90219047D01*
X101115285Y-90219047D02*
X101139095Y-90171428D01*
X101139095Y-90171428D02*
X101162904Y-90147618D01*
X101162904Y-90147618D02*
X101210523Y-90123809D01*
X91469046Y-86374809D02*
X91183332Y-86374809D01*
X91326189Y-86874809D02*
X91326189Y-86374809D01*
X91016666Y-86874809D02*
X91016666Y-86374809D01*
X91016666Y-86374809D02*
X90826190Y-86374809D01*
X90826190Y-86374809D02*
X90778571Y-86398619D01*
X90778571Y-86398619D02*
X90754761Y-86422428D01*
X90754761Y-86422428D02*
X90730952Y-86470047D01*
X90730952Y-86470047D02*
X90730952Y-86541476D01*
X90730952Y-86541476D02*
X90754761Y-86589095D01*
X90754761Y-86589095D02*
X90778571Y-86612904D01*
X90778571Y-86612904D02*
X90826190Y-86636714D01*
X90826190Y-86636714D02*
X91016666Y-86636714D01*
X90492856Y-86874809D02*
X90397618Y-86874809D01*
X90397618Y-86874809D02*
X90349999Y-86851000D01*
X90349999Y-86851000D02*
X90326190Y-86827190D01*
X90326190Y-86827190D02*
X90278571Y-86755761D01*
X90278571Y-86755761D02*
X90254761Y-86660523D01*
X90254761Y-86660523D02*
X90254761Y-86470047D01*
X90254761Y-86470047D02*
X90278571Y-86422428D01*
X90278571Y-86422428D02*
X90302380Y-86398619D01*
X90302380Y-86398619D02*
X90349999Y-86374809D01*
X90349999Y-86374809D02*
X90445237Y-86374809D01*
X90445237Y-86374809D02*
X90492856Y-86398619D01*
X90492856Y-86398619D02*
X90516666Y-86422428D01*
X90516666Y-86422428D02*
X90540475Y-86470047D01*
X90540475Y-86470047D02*
X90540475Y-86589095D01*
X90540475Y-86589095D02*
X90516666Y-86636714D01*
X90516666Y-86636714D02*
X90492856Y-86660523D01*
X90492856Y-86660523D02*
X90445237Y-86684333D01*
X90445237Y-86684333D02*
X90349999Y-86684333D01*
X90349999Y-86684333D02*
X90302380Y-86660523D01*
X90302380Y-86660523D02*
X90278571Y-86636714D01*
X90278571Y-86636714D02*
X90254761Y-86589095D01*
X90064285Y-86422428D02*
X90040476Y-86398619D01*
X90040476Y-86398619D02*
X89992857Y-86374809D01*
X89992857Y-86374809D02*
X89873809Y-86374809D01*
X89873809Y-86374809D02*
X89826190Y-86398619D01*
X89826190Y-86398619D02*
X89802381Y-86422428D01*
X89802381Y-86422428D02*
X89778571Y-86470047D01*
X89778571Y-86470047D02*
X89778571Y-86517666D01*
X89778571Y-86517666D02*
X89802381Y-86589095D01*
X89802381Y-86589095D02*
X90088095Y-86874809D01*
X90088095Y-86874809D02*
X89778571Y-86874809D01*
X106469046Y-102574809D02*
X106183332Y-102574809D01*
X106326189Y-103074809D02*
X106326189Y-102574809D01*
X106016666Y-103074809D02*
X106016666Y-102574809D01*
X106016666Y-102574809D02*
X105826190Y-102574809D01*
X105826190Y-102574809D02*
X105778571Y-102598619D01*
X105778571Y-102598619D02*
X105754761Y-102622428D01*
X105754761Y-102622428D02*
X105730952Y-102670047D01*
X105730952Y-102670047D02*
X105730952Y-102741476D01*
X105730952Y-102741476D02*
X105754761Y-102789095D01*
X105754761Y-102789095D02*
X105778571Y-102812904D01*
X105778571Y-102812904D02*
X105826190Y-102836714D01*
X105826190Y-102836714D02*
X106016666Y-102836714D01*
X105564285Y-102574809D02*
X105254761Y-102574809D01*
X105254761Y-102574809D02*
X105421428Y-102765285D01*
X105421428Y-102765285D02*
X105349999Y-102765285D01*
X105349999Y-102765285D02*
X105302380Y-102789095D01*
X105302380Y-102789095D02*
X105278571Y-102812904D01*
X105278571Y-102812904D02*
X105254761Y-102860523D01*
X105254761Y-102860523D02*
X105254761Y-102979571D01*
X105254761Y-102979571D02*
X105278571Y-103027190D01*
X105278571Y-103027190D02*
X105302380Y-103051000D01*
X105302380Y-103051000D02*
X105349999Y-103074809D01*
X105349999Y-103074809D02*
X105492856Y-103074809D01*
X105492856Y-103074809D02*
X105540475Y-103051000D01*
X105540475Y-103051000D02*
X105564285Y-103027190D01*
X105016666Y-103074809D02*
X104921428Y-103074809D01*
X104921428Y-103074809D02*
X104873809Y-103051000D01*
X104873809Y-103051000D02*
X104850000Y-103027190D01*
X104850000Y-103027190D02*
X104802381Y-102955761D01*
X104802381Y-102955761D02*
X104778571Y-102860523D01*
X104778571Y-102860523D02*
X104778571Y-102670047D01*
X104778571Y-102670047D02*
X104802381Y-102622428D01*
X104802381Y-102622428D02*
X104826190Y-102598619D01*
X104826190Y-102598619D02*
X104873809Y-102574809D01*
X104873809Y-102574809D02*
X104969047Y-102574809D01*
X104969047Y-102574809D02*
X105016666Y-102598619D01*
X105016666Y-102598619D02*
X105040476Y-102622428D01*
X105040476Y-102622428D02*
X105064285Y-102670047D01*
X105064285Y-102670047D02*
X105064285Y-102789095D01*
X105064285Y-102789095D02*
X105040476Y-102836714D01*
X105040476Y-102836714D02*
X105016666Y-102860523D01*
X105016666Y-102860523D02*
X104969047Y-102884333D01*
X104969047Y-102884333D02*
X104873809Y-102884333D01*
X104873809Y-102884333D02*
X104826190Y-102860523D01*
X104826190Y-102860523D02*
X104802381Y-102836714D01*
X104802381Y-102836714D02*
X104778571Y-102789095D01*
X91874809Y-97880953D02*
X91874809Y-98166667D01*
X92374809Y-98023810D02*
X91874809Y-98023810D01*
X92374809Y-98333333D02*
X91874809Y-98333333D01*
X91874809Y-98333333D02*
X91874809Y-98523809D01*
X91874809Y-98523809D02*
X91898619Y-98571428D01*
X91898619Y-98571428D02*
X91922428Y-98595238D01*
X91922428Y-98595238D02*
X91970047Y-98619047D01*
X91970047Y-98619047D02*
X92041476Y-98619047D01*
X92041476Y-98619047D02*
X92089095Y-98595238D01*
X92089095Y-98595238D02*
X92112904Y-98571428D01*
X92112904Y-98571428D02*
X92136714Y-98523809D01*
X92136714Y-98523809D02*
X92136714Y-98333333D01*
X91874809Y-99047619D02*
X91874809Y-98952381D01*
X91874809Y-98952381D02*
X91898619Y-98904762D01*
X91898619Y-98904762D02*
X91922428Y-98880952D01*
X91922428Y-98880952D02*
X91993857Y-98833333D01*
X91993857Y-98833333D02*
X92089095Y-98809524D01*
X92089095Y-98809524D02*
X92279571Y-98809524D01*
X92279571Y-98809524D02*
X92327190Y-98833333D01*
X92327190Y-98833333D02*
X92351000Y-98857143D01*
X92351000Y-98857143D02*
X92374809Y-98904762D01*
X92374809Y-98904762D02*
X92374809Y-99000000D01*
X92374809Y-99000000D02*
X92351000Y-99047619D01*
X92351000Y-99047619D02*
X92327190Y-99071428D01*
X92327190Y-99071428D02*
X92279571Y-99095238D01*
X92279571Y-99095238D02*
X92160523Y-99095238D01*
X92160523Y-99095238D02*
X92112904Y-99071428D01*
X92112904Y-99071428D02*
X92089095Y-99047619D01*
X92089095Y-99047619D02*
X92065285Y-99000000D01*
X92065285Y-99000000D02*
X92065285Y-98904762D01*
X92065285Y-98904762D02*
X92089095Y-98857143D01*
X92089095Y-98857143D02*
X92112904Y-98833333D01*
X92112904Y-98833333D02*
X92160523Y-98809524D01*
X92041476Y-99523809D02*
X92374809Y-99523809D01*
X91851000Y-99404761D02*
X92208142Y-99285714D01*
X92208142Y-99285714D02*
X92208142Y-99595237D01*
X98919046Y-105174809D02*
X98633332Y-105174809D01*
X98776189Y-105674809D02*
X98776189Y-105174809D01*
X98466666Y-105674809D02*
X98466666Y-105174809D01*
X98466666Y-105174809D02*
X98276190Y-105174809D01*
X98276190Y-105174809D02*
X98228571Y-105198619D01*
X98228571Y-105198619D02*
X98204761Y-105222428D01*
X98204761Y-105222428D02*
X98180952Y-105270047D01*
X98180952Y-105270047D02*
X98180952Y-105341476D01*
X98180952Y-105341476D02*
X98204761Y-105389095D01*
X98204761Y-105389095D02*
X98228571Y-105412904D01*
X98228571Y-105412904D02*
X98276190Y-105436714D01*
X98276190Y-105436714D02*
X98466666Y-105436714D01*
X97752380Y-105341476D02*
X97752380Y-105674809D01*
X97871428Y-105151000D02*
X97990475Y-105508142D01*
X97990475Y-105508142D02*
X97680952Y-105508142D01*
X97514285Y-105222428D02*
X97490476Y-105198619D01*
X97490476Y-105198619D02*
X97442857Y-105174809D01*
X97442857Y-105174809D02*
X97323809Y-105174809D01*
X97323809Y-105174809D02*
X97276190Y-105198619D01*
X97276190Y-105198619D02*
X97252381Y-105222428D01*
X97252381Y-105222428D02*
X97228571Y-105270047D01*
X97228571Y-105270047D02*
X97228571Y-105317666D01*
X97228571Y-105317666D02*
X97252381Y-105389095D01*
X97252381Y-105389095D02*
X97538095Y-105674809D01*
X97538095Y-105674809D02*
X97228571Y-105674809D01*
X111069046Y-98224809D02*
X110783332Y-98224809D01*
X110926189Y-98724809D02*
X110926189Y-98224809D01*
X110616666Y-98724809D02*
X110616666Y-98224809D01*
X110616666Y-98224809D02*
X110426190Y-98224809D01*
X110426190Y-98224809D02*
X110378571Y-98248619D01*
X110378571Y-98248619D02*
X110354761Y-98272428D01*
X110354761Y-98272428D02*
X110330952Y-98320047D01*
X110330952Y-98320047D02*
X110330952Y-98391476D01*
X110330952Y-98391476D02*
X110354761Y-98439095D01*
X110354761Y-98439095D02*
X110378571Y-98462904D01*
X110378571Y-98462904D02*
X110426190Y-98486714D01*
X110426190Y-98486714D02*
X110616666Y-98486714D01*
X110092856Y-98724809D02*
X109997618Y-98724809D01*
X109997618Y-98724809D02*
X109949999Y-98701000D01*
X109949999Y-98701000D02*
X109926190Y-98677190D01*
X109926190Y-98677190D02*
X109878571Y-98605761D01*
X109878571Y-98605761D02*
X109854761Y-98510523D01*
X109854761Y-98510523D02*
X109854761Y-98320047D01*
X109854761Y-98320047D02*
X109878571Y-98272428D01*
X109878571Y-98272428D02*
X109902380Y-98248619D01*
X109902380Y-98248619D02*
X109949999Y-98224809D01*
X109949999Y-98224809D02*
X110045237Y-98224809D01*
X110045237Y-98224809D02*
X110092856Y-98248619D01*
X110092856Y-98248619D02*
X110116666Y-98272428D01*
X110116666Y-98272428D02*
X110140475Y-98320047D01*
X110140475Y-98320047D02*
X110140475Y-98439095D01*
X110140475Y-98439095D02*
X110116666Y-98486714D01*
X110116666Y-98486714D02*
X110092856Y-98510523D01*
X110092856Y-98510523D02*
X110045237Y-98534333D01*
X110045237Y-98534333D02*
X109949999Y-98534333D01*
X109949999Y-98534333D02*
X109902380Y-98510523D01*
X109902380Y-98510523D02*
X109878571Y-98486714D01*
X109878571Y-98486714D02*
X109854761Y-98439095D01*
X109616666Y-98724809D02*
X109521428Y-98724809D01*
X109521428Y-98724809D02*
X109473809Y-98701000D01*
X109473809Y-98701000D02*
X109450000Y-98677190D01*
X109450000Y-98677190D02*
X109402381Y-98605761D01*
X109402381Y-98605761D02*
X109378571Y-98510523D01*
X109378571Y-98510523D02*
X109378571Y-98320047D01*
X109378571Y-98320047D02*
X109402381Y-98272428D01*
X109402381Y-98272428D02*
X109426190Y-98248619D01*
X109426190Y-98248619D02*
X109473809Y-98224809D01*
X109473809Y-98224809D02*
X109569047Y-98224809D01*
X109569047Y-98224809D02*
X109616666Y-98248619D01*
X109616666Y-98248619D02*
X109640476Y-98272428D01*
X109640476Y-98272428D02*
X109664285Y-98320047D01*
X109664285Y-98320047D02*
X109664285Y-98439095D01*
X109664285Y-98439095D02*
X109640476Y-98486714D01*
X109640476Y-98486714D02*
X109616666Y-98510523D01*
X109616666Y-98510523D02*
X109569047Y-98534333D01*
X109569047Y-98534333D02*
X109473809Y-98534333D01*
X109473809Y-98534333D02*
X109426190Y-98510523D01*
X109426190Y-98510523D02*
X109402381Y-98486714D01*
X109402381Y-98486714D02*
X109378571Y-98439095D01*
X103807141Y-95824809D02*
X103521427Y-95824809D01*
X103664284Y-96324809D02*
X103664284Y-95824809D01*
X103354761Y-96324809D02*
X103354761Y-95824809D01*
X103354761Y-95824809D02*
X103164285Y-95824809D01*
X103164285Y-95824809D02*
X103116666Y-95848619D01*
X103116666Y-95848619D02*
X103092856Y-95872428D01*
X103092856Y-95872428D02*
X103069047Y-95920047D01*
X103069047Y-95920047D02*
X103069047Y-95991476D01*
X103069047Y-95991476D02*
X103092856Y-96039095D01*
X103092856Y-96039095D02*
X103116666Y-96062904D01*
X103116666Y-96062904D02*
X103164285Y-96086714D01*
X103164285Y-96086714D02*
X103354761Y-96086714D01*
X102592856Y-96324809D02*
X102878570Y-96324809D01*
X102735713Y-96324809D02*
X102735713Y-95824809D01*
X102735713Y-95824809D02*
X102783332Y-95896238D01*
X102783332Y-95896238D02*
X102830951Y-95943857D01*
X102830951Y-95943857D02*
X102878570Y-95967666D01*
X102426190Y-95824809D02*
X102116666Y-95824809D01*
X102116666Y-95824809D02*
X102283333Y-96015285D01*
X102283333Y-96015285D02*
X102211904Y-96015285D01*
X102211904Y-96015285D02*
X102164285Y-96039095D01*
X102164285Y-96039095D02*
X102140476Y-96062904D01*
X102140476Y-96062904D02*
X102116666Y-96110523D01*
X102116666Y-96110523D02*
X102116666Y-96229571D01*
X102116666Y-96229571D02*
X102140476Y-96277190D01*
X102140476Y-96277190D02*
X102164285Y-96301000D01*
X102164285Y-96301000D02*
X102211904Y-96324809D01*
X102211904Y-96324809D02*
X102354761Y-96324809D01*
X102354761Y-96324809D02*
X102402380Y-96301000D01*
X102402380Y-96301000D02*
X102426190Y-96277190D01*
X101830952Y-96039095D02*
X101878571Y-96015285D01*
X101878571Y-96015285D02*
X101902381Y-95991476D01*
X101902381Y-95991476D02*
X101926190Y-95943857D01*
X101926190Y-95943857D02*
X101926190Y-95920047D01*
X101926190Y-95920047D02*
X101902381Y-95872428D01*
X101902381Y-95872428D02*
X101878571Y-95848619D01*
X101878571Y-95848619D02*
X101830952Y-95824809D01*
X101830952Y-95824809D02*
X101735714Y-95824809D01*
X101735714Y-95824809D02*
X101688095Y-95848619D01*
X101688095Y-95848619D02*
X101664286Y-95872428D01*
X101664286Y-95872428D02*
X101640476Y-95920047D01*
X101640476Y-95920047D02*
X101640476Y-95943857D01*
X101640476Y-95943857D02*
X101664286Y-95991476D01*
X101664286Y-95991476D02*
X101688095Y-96015285D01*
X101688095Y-96015285D02*
X101735714Y-96039095D01*
X101735714Y-96039095D02*
X101830952Y-96039095D01*
X101830952Y-96039095D02*
X101878571Y-96062904D01*
X101878571Y-96062904D02*
X101902381Y-96086714D01*
X101902381Y-96086714D02*
X101926190Y-96134333D01*
X101926190Y-96134333D02*
X101926190Y-96229571D01*
X101926190Y-96229571D02*
X101902381Y-96277190D01*
X101902381Y-96277190D02*
X101878571Y-96301000D01*
X101878571Y-96301000D02*
X101830952Y-96324809D01*
X101830952Y-96324809D02*
X101735714Y-96324809D01*
X101735714Y-96324809D02*
X101688095Y-96301000D01*
X101688095Y-96301000D02*
X101664286Y-96277190D01*
X101664286Y-96277190D02*
X101640476Y-96229571D01*
X101640476Y-96229571D02*
X101640476Y-96134333D01*
X101640476Y-96134333D02*
X101664286Y-96086714D01*
X101664286Y-96086714D02*
X101688095Y-96062904D01*
X101688095Y-96062904D02*
X101735714Y-96039095D01*
D11*
X89300000Y-87700000D02*
G75*
G03*
X88100000Y-87700000I-600000J0D01*
G01*
X88100000Y-87700000D02*
G75*
G03*
X89300000Y-87700000I600000J0D01*
G01*
X98200000Y-101000000D02*
G75*
G03*
X97000000Y-101000000I-600000J0D01*
G01*
X97000000Y-101000000D02*
G75*
G03*
X98200000Y-101000000I600000J0D01*
G01*
X108400000Y-91500000D02*
G75*
G03*
X107200000Y-91500000I-600000J0D01*
G01*
X107200000Y-91500000D02*
G75*
G03*
X108400000Y-91500000I600000J0D01*
G01*
X103100000Y-82200000D02*
G75*
G03*
X101700000Y-82200000I-700000J0D01*
G01*
X101700000Y-82200000D02*
G75*
G03*
X103100000Y-82200000I700000J0D01*
G01*
X107800000Y-98500000D02*
G75*
G03*
X106600000Y-98500000I-600000J0D01*
G01*
X106600000Y-98500000D02*
G75*
G03*
X107800000Y-98500000I600000J0D01*
G01*
X97000000Y-89000000D02*
G75*
G03*
X95800000Y-89000000I-600000J0D01*
G01*
X95800000Y-89000000D02*
G75*
G03*
X97000000Y-89000000I600000J0D01*
G01*
X90600000Y-91500000D02*
G75*
G03*
X89400000Y-91500000I-600000J0D01*
G01*
X89400000Y-91500000D02*
G75*
G03*
X90600000Y-91500000I600000J0D01*
G01*
X93800000Y-98600000D02*
G75*
G03*
X92600000Y-98600000I-600000J0D01*
G01*
X92600000Y-98600000D02*
G75*
G03*
X93800000Y-98600000I600000J0D01*
G01*
X110050000Y-90250000D02*
G75*
G03*
X108850000Y-90250000I-600000J0D01*
G01*
X108850000Y-90250000D02*
G75*
G03*
X110050000Y-90250000I600000J0D01*
G01*
X107100000Y-89000000D02*
G75*
G03*
X105900000Y-89000000I-600000J0D01*
G01*
X105900000Y-89000000D02*
G75*
G03*
X107100000Y-89000000I600000J0D01*
G01*
X102700000Y-104800000D02*
G75*
G03*
X101500000Y-104800000I-600000J0D01*
G01*
X101500000Y-104800000D02*
G75*
G03*
X102700000Y-104800000I600000J0D01*
G01*
X104600000Y-89000000D02*
G75*
G03*
X103400000Y-89000000I-600000J0D01*
G01*
X103400000Y-89000000D02*
G75*
G03*
X104600000Y-89000000I600000J0D01*
G01*
X89300000Y-91500000D02*
G75*
G03*
X88100000Y-91500000I-600000J0D01*
G01*
X88100000Y-91500000D02*
G75*
G03*
X89300000Y-91500000I600000J0D01*
G01*
X98200000Y-102300000D02*
G75*
G03*
X97000000Y-102300000I-600000J0D01*
G01*
X97000000Y-102300000D02*
G75*
G03*
X98200000Y-102300000I600000J0D01*
G01*
X96900000Y-100400000D02*
G75*
G03*
X95700000Y-100400000I-600000J0D01*
G01*
X95700000Y-100400000D02*
G75*
G03*
X96900000Y-100400000I600000J0D01*
G01*
X93800000Y-89600000D02*
G75*
G03*
X92600000Y-89600000I-600000J0D01*
G01*
X92600000Y-89600000D02*
G75*
G03*
X93800000Y-89600000I600000J0D01*
G01*
X107200000Y-90200000D02*
G75*
G03*
X106000000Y-90200000I-600000J0D01*
G01*
X106000000Y-90200000D02*
G75*
G03*
X107200000Y-90200000I600000J0D01*
G01*
X105900000Y-89000000D02*
G75*
G03*
X104700000Y-89000000I-600000J0D01*
G01*
X104700000Y-89000000D02*
G75*
G03*
X105900000Y-89000000I600000J0D01*
G01*
X93200000Y-92800000D02*
G75*
G03*
X92000000Y-92800000I-600000J0D01*
G01*
X92000000Y-92800000D02*
G75*
G03*
X93200000Y-92800000I600000J0D01*
G01*
X91800000Y-100400000D02*
G75*
G03*
X90600000Y-100400000I-600000J0D01*
G01*
X90600000Y-100400000D02*
G75*
G03*
X91800000Y-100400000I600000J0D01*
G01*
X100200000Y-80200000D02*
G75*
G03*
X98800000Y-80200000I-700000J0D01*
G01*
X98800000Y-80200000D02*
G75*
G03*
X100200000Y-80200000I700000J0D01*
G01*
X106500000Y-97200000D02*
G75*
G03*
X105300000Y-97200000I-600000J0D01*
G01*
X105300000Y-97200000D02*
G75*
G03*
X106500000Y-97200000I600000J0D01*
G01*
X103300000Y-102300000D02*
G75*
G03*
X102100000Y-102300000I-600000J0D01*
G01*
X102100000Y-102300000D02*
G75*
G03*
X103300000Y-102300000I600000J0D01*
G01*
X107100000Y-91500000D02*
G75*
G03*
X105900000Y-91500000I-600000J0D01*
G01*
X105900000Y-91500000D02*
G75*
G03*
X107100000Y-91500000I600000J0D01*
G01*
X109300000Y-108400000D02*
G75*
G03*
X108100000Y-108400000I-600000J0D01*
G01*
X108100000Y-108400000D02*
G75*
G03*
X109300000Y-108400000I600000J0D01*
G01*
X99600000Y-87700000D02*
G75*
G03*
X98400000Y-87700000I-600000J0D01*
G01*
X98400000Y-87700000D02*
G75*
G03*
X99600000Y-87700000I600000J0D01*
G01*
X93200000Y-91500000D02*
G75*
G03*
X92000000Y-91500000I-600000J0D01*
G01*
X92000000Y-91500000D02*
G75*
G03*
X93200000Y-91500000I600000J0D01*
G01*
X97000000Y-104200000D02*
G75*
G03*
X95800000Y-104200000I-600000J0D01*
G01*
X95800000Y-104200000D02*
G75*
G03*
X97000000Y-104200000I600000J0D01*
G01*
X105850000Y-91550000D02*
G75*
G03*
X104650000Y-91550000I-600000J0D01*
G01*
X104650000Y-91550000D02*
G75*
G03*
X105850000Y-91550000I600000J0D01*
G01*
X90400000Y-100900000D02*
G75*
G03*
X89200000Y-100900000I-600000J0D01*
G01*
X89200000Y-100900000D02*
G75*
G03*
X90400000Y-100900000I600000J0D01*
G01*
X108400000Y-95300000D02*
G75*
G03*
X107200000Y-95300000I-600000J0D01*
G01*
X107200000Y-95300000D02*
G75*
G03*
X108400000Y-95300000I600000J0D01*
G01*
X105200000Y-98500000D02*
G75*
G03*
X104000000Y-98500000I-600000J0D01*
G01*
X104000000Y-98500000D02*
G75*
G03*
X105200000Y-98500000I600000J0D01*
G01*
X105900000Y-90200000D02*
G75*
G03*
X104700000Y-90200000I-600000J0D01*
G01*
X104700000Y-90200000D02*
G75*
G03*
X105900000Y-90200000I600000J0D01*
G01*
X90600000Y-89000000D02*
G75*
G03*
X89400000Y-89000000I-600000J0D01*
G01*
X89400000Y-89000000D02*
G75*
G03*
X90600000Y-89000000I600000J0D01*
G01*
X94400000Y-100400000D02*
G75*
G03*
X93200000Y-100400000I-600000J0D01*
G01*
X93200000Y-100400000D02*
G75*
G03*
X94400000Y-100400000I600000J0D01*
G01*
X104600000Y-91500000D02*
G75*
G03*
X103400000Y-91500000I-600000J0D01*
G01*
X103400000Y-91500000D02*
G75*
G03*
X104600000Y-91500000I600000J0D01*
G01*
X107800000Y-99700000D02*
G75*
G03*
X106600000Y-99700000I-600000J0D01*
G01*
X106600000Y-99700000D02*
G75*
G03*
X107800000Y-99700000I600000J0D01*
G01*
X108400000Y-89600000D02*
G75*
G03*
X107200000Y-89600000I-600000J0D01*
G01*
X107200000Y-89600000D02*
G75*
G03*
X108400000Y-89600000I600000J0D01*
G01*
X97000000Y-102950000D02*
G75*
G03*
X95800000Y-102950000I-600000J0D01*
G01*
X95800000Y-102950000D02*
G75*
G03*
X97000000Y-102950000I600000J0D01*
G01*
X105200000Y-97250000D02*
G75*
G03*
X104000000Y-97250000I-600000J0D01*
G01*
X104000000Y-97250000D02*
G75*
G03*
X105200000Y-97250000I600000J0D01*
G01*
X107100000Y-92800000D02*
G75*
G03*
X105900000Y-92800000I-600000J0D01*
G01*
X105900000Y-92800000D02*
G75*
G03*
X107100000Y-92800000I600000J0D01*
G01*
X105800000Y-92800000D02*
G75*
G03*
X104600000Y-92800000I-600000J0D01*
G01*
X104600000Y-92800000D02*
G75*
G03*
X105800000Y-92800000I600000J0D01*
G01*
X89300000Y-89000000D02*
G75*
G03*
X88100000Y-89000000I-600000J0D01*
G01*
X88100000Y-89000000D02*
G75*
G03*
X89300000Y-89000000I600000J0D01*
G01*
X105200000Y-99800000D02*
G75*
G03*
X104000000Y-99800000I-600000J0D01*
G01*
X104000000Y-99800000D02*
G75*
G03*
X105200000Y-99800000I600000J0D01*
G01*
X106500000Y-98500000D02*
G75*
G03*
X105300000Y-98500000I-600000J0D01*
G01*
X105300000Y-98500000D02*
G75*
G03*
X106500000Y-98500000I600000J0D01*
G01*
X100800000Y-100400000D02*
G75*
G03*
X99600000Y-100400000I-600000J0D01*
G01*
X99600000Y-100400000D02*
G75*
G03*
X100800000Y-100400000I600000J0D01*
G01*
X93100000Y-101700000D02*
G75*
G03*
X91900000Y-101700000I-600000J0D01*
G01*
X91900000Y-101700000D02*
G75*
G03*
X93100000Y-101700000I600000J0D01*
G01*
X106500000Y-99800000D02*
G75*
G03*
X105300000Y-99800000I-600000J0D01*
G01*
X105300000Y-99800000D02*
G75*
G03*
X106500000Y-99800000I600000J0D01*
G01*
X105200000Y-82200000D02*
G75*
G03*
X103800000Y-82200000I-700000J0D01*
G01*
X103800000Y-82200000D02*
G75*
G03*
X105200000Y-82200000I700000J0D01*
G01*
X104600000Y-90200000D02*
G75*
G03*
X103400000Y-90200000I-600000J0D01*
G01*
X103400000Y-90200000D02*
G75*
G03*
X104600000Y-90200000I600000J0D01*
G01*
X90600000Y-87700000D02*
G75*
G03*
X89400000Y-87700000I-600000J0D01*
G01*
X89400000Y-87700000D02*
G75*
G03*
X90600000Y-87700000I600000J0D01*
G01*
X104800000Y-102000000D02*
G75*
G03*
X103600000Y-102000000I-600000J0D01*
G01*
X103600000Y-102000000D02*
G75*
G03*
X104800000Y-102000000I600000J0D01*
G01*
X93100000Y-100400000D02*
G75*
G03*
X91900000Y-100400000I-600000J0D01*
G01*
X91900000Y-100400000D02*
G75*
G03*
X93100000Y-100400000I600000J0D01*
G01*
X97000000Y-105450000D02*
G75*
G03*
X95800000Y-105450000I-600000J0D01*
G01*
X95800000Y-105450000D02*
G75*
G03*
X97000000Y-105450000I600000J0D01*
G01*
X109000000Y-98500000D02*
G75*
G03*
X107800000Y-98500000I-600000J0D01*
G01*
X107800000Y-98500000D02*
G75*
G03*
X109000000Y-98500000I600000J0D01*
G01*
X105200000Y-96000000D02*
G75*
G03*
X104000000Y-96000000I-600000J0D01*
G01*
X104000000Y-96000000D02*
G75*
G03*
X105200000Y-96000000I600000J0D01*
G01*
M02*
