M48
; DRILL file {KiCad 7.0.10} date Fri Mar 15 08:12:37 2024
; FORMAT={-:-/ absolute / inch / decimal}
; #@! TF.CreationDate,2024-03-15T08:12:37-06:00
; #@! TF.GenerationSoftware,Kicad,Pcbnew,7.0.10
; #@! TF.FileFunction,MixedPlating,1,4
FMAT,2
INCH
; #@! TA.AperFunction,Plated,PTH,ViaDrill
T1C0.0100
; #@! TA.AperFunction,Plated,PTH,ViaDrill
T2C0.0102
; #@! TA.AperFunction,Plated,PTH,ComponentDrill
T3C0.0295
; #@! TA.AperFunction,Plated,PTH,ComponentDrill
T4C0.0394
%
G90
G05
T1
X2.9469Y-3.9134
X2.9488Y-4.2028
X2.9862Y-3.9449
X2.9902Y-4.2343
X3.0315Y-3.9114
X3.0319Y-3.6131
X3.0335Y-4.2047
X3.0492Y-4.2874
X3.0512Y-4.3465
X3.0512Y-4.4055
X3.0512Y-4.4646
X3.0512Y-4.5236
X3.0709Y-3.7106
X3.0713Y-3.4098
X3.0748Y-4.0059
X3.1516Y-3.7106
X3.1575Y-4.0059
X3.2165Y-3.0591
X3.2244Y-3.374
X3.2244Y-3.4331
X3.2244Y-3.4921
X3.2402Y-5.3819
X3.2539Y-3.3406
X3.3622Y-3.2598
X3.3622Y-4.0039
X3.3622Y-4.0827
X3.3661Y-3.5433
X3.3661Y-3.6535
X3.3858Y-4.126
X3.3937Y-3.6024
X3.3937Y-3.6732
X3.4016Y-4.2992
X3.4114Y-3.8583
X3.4213Y-3.5827
X3.4213Y-3.6732
X3.4213Y-5.378
X3.4252Y-4.1476
X3.4291Y-4.0394
X3.4291Y-4.4882
X3.4311Y-4.187
X3.4311Y-5.1398
X3.437Y-4.1004
X3.4409Y-3.6024
X3.4469Y-4.1673
X3.4469Y-4.8937
X3.4469Y-4.9528
X3.4469Y-5.0118
X3.4469Y-5.0709
X3.4488Y-3.5551
X3.4488Y-4.7638
X3.4488Y-4.8228
X3.4665Y-5.185
X3.4724Y-3.5551
X3.4803Y-4.7303
X3.4803Y-4.8563
X3.4921Y-3.4528
X3.4921Y-3.5039
X3.4921Y-3.6024
X3.5098Y-2.9213
X3.5354Y-3.9724
X3.5433Y-3.4528
X3.5433Y-3.5039
X3.5433Y-3.6024
X3.5433Y-3.854
X3.5472Y-2.8839
X3.5768Y-4.8937
X3.5768Y-4.9528
X3.5768Y-5.0118
X3.5768Y-5.0709
X3.5768Y-5.1398
X3.5846Y-2.9331
X3.5906Y-3.9528
X3.5984Y-3.4016
X3.5997Y-4.3425
X3.6043Y-5.1535
X3.6043Y-5.3996
X3.622Y-4.7402
X3.6338Y-3.4336
X3.6417Y-3.9528
X3.6417Y-4.0039
X3.6457Y-3.6024
X3.6457Y-3.6535
X3.6496Y-4.7402
X3.6687Y-3.8819
X3.6687Y-4.126
X3.6693Y-3.5276
X3.6693Y-4.8406
X3.6791Y-4.7402
X3.6791Y-4.7854
X3.6811Y-4.8209
X3.6811Y-4.8602
X3.6811Y-5.0138
X3.6811Y-5.0374
X3.6811Y-5.061
X3.6929Y-3.9533
X3.6949Y-3.5787
X3.6949Y-3.628
X3.6949Y-3.6772
X3.6949Y-3.7283
X3.6949Y-3.7795
X3.7146Y-4.2953
X3.7205Y-4.126
X3.7244Y-5.216
X3.7244Y-5.3976
X3.7264Y-5.0177
X3.7382Y-4.0531
X3.7402Y-4.0039
X3.7402Y-4.4429
X3.7441Y-3.1929
X3.7441Y-3.3406
X3.7441Y-3.6772
X3.7441Y-3.7283
X3.7441Y-3.7795
X3.7441Y-3.878
X3.7441Y-3.9252
X3.7598Y-4.5433
X3.7657Y-4.8209
X3.7657Y-4.8937
X3.7657Y-5.0177
X3.7677Y-4.8681
X3.7717Y-3.8268
X3.7776Y-4.939
X3.7854Y-4.8012
X3.7913Y-3.4016
X3.7913Y-3.9528
X3.7913Y-4.0039
X3.7953Y-3.5039
X3.7953Y-3.8268
X3.7953Y-4.0531
X3.7953Y-4.1024
X3.7953Y-4.1516
X3.8031Y-4.8386
X3.8031Y-5.216
X3.8031Y-5.3976
X3.8041Y-4.8691
X3.8051Y-4.6535
X3.8051Y-4.7185
X3.8051Y-4.939
X3.8051Y-5.0177
X3.8052Y-4.8994
X3.815Y-3.2795
X3.8189Y-3.8268
X3.8317Y-4.8376
X3.8327Y-4.4523
X3.8327Y-4.8012
X3.8337Y-4.8986
X3.8406Y-3.5787
X3.8421Y-3.9768
X3.8425Y-4.0276
X3.8445Y-3.7283
X3.8445Y-3.878
X3.8445Y-3.9252
X3.8457Y-4.0784
X3.8465Y-5.0827
X3.8543Y-4.4331
X3.8543Y-4.939
X3.8632Y-4.8691
X3.8642Y-4.8996
X3.8819Y-4.4252
X3.8819Y-5.216
X3.8819Y-5.3976
X3.8917Y-3.2343
X3.8937Y-3.5236
X3.8937Y-3.6299
X3.8937Y-3.6791
X3.8937Y-3.7283
X3.8937Y-3.7795
X3.8937Y-3.8307
X3.8937Y-3.9252
X3.8937Y-4.5039
X3.8937Y-4.5276
X3.8937Y-4.5551
X3.8976Y-3.4528
X3.9016Y-4.8051
X3.9016Y-4.935
X3.9154Y-4.3386
X3.937Y-4.689
X3.9449Y-3.5787
X3.9449Y-3.7047
X3.9455Y-3.9533
X3.9508Y-3.3858
X3.9606Y-4.0295
X3.9606Y-4.0787
X3.9606Y-5.216
X3.9606Y-5.3976
X3.9812Y-3.3375
X3.9843Y-4.0295
X3.9843Y-4.1309
X3.9921Y-3.9252
X3.9941Y-3.5276
X4.0187Y-3.8268
X4.0187Y-3.877
X4.0197Y-4.126
X4.0231Y-3.0943
X4.0382Y-3.1351
X4.0394Y-5.2121
X4.0433Y-3.6535
X4.0472Y-3.5787
X4.0472Y-3.7795
X4.0551Y-3.8307
X4.0591Y-3.878
X4.0687Y-4.0288
X4.0748Y-4.1654
X4.0748Y-4.189
X4.0768Y-4.2362
X4.0787Y-4.7913
X4.0788Y-3.1201
X4.0799Y-3.1811
X4.0945Y-3.5039
X4.0945Y-3.5512
X4.0945Y-3.6024
X4.0945Y-3.6535
X4.0945Y-3.7047
X4.0949Y-4.0039
X4.0965Y-4.3268
X4.0984Y-4.2224
X4.1004Y-5.2717
X4.1122Y-4.3858
X4.1142Y-4.5118
X4.1181Y-3.8292
X4.1181Y-3.9291
X4.1181Y-4.0787
X4.1187Y-3.8786
X4.1188Y-3.7788
X4.1235Y-2.8441
X4.126Y-4.4488
X4.126Y-4.9921
X4.126Y-5.0236
X4.1339Y-5.2717
X4.1378Y-4.2854
X4.1417Y-3.6535
X4.1417Y-5.0079
X4.1437Y-3.6043
X4.1437Y-3.753
X4.1438Y-2.5907
X4.1457Y-3.5039
X4.1457Y-3.5512
X4.1535Y-4.315
X4.1535Y-4.5827
X4.1575Y-3.2657
X4.1575Y-4.9921
X4.1575Y-5.0236
X4.1594Y-4.2638
X4.1614Y-4.6102
X4.1687Y-3.8779
X4.1687Y-3.9285
X4.1687Y-4.2382
X4.1693Y-3.8268
X4.1791Y-5.3051
X4.1791Y-5.3425
X4.1929Y-3.5039
X4.1929Y-3.6535
X4.1939Y-3.6033
X4.1969Y-3.5512
X4.2126Y-3.311
X4.2126Y-5.0945
X4.2146Y-3.2657
X4.2187Y-3.927
X4.2205Y-3.878
X4.2224Y-5.4528
X4.2283Y-4.2205
X4.2323Y-4.3976
X4.2323Y-4.6102
X4.2441Y-3.5276
X4.2441Y-3.6024
X4.2441Y-3.6575
X4.2441Y-3.752
X4.248Y-5.3799
X4.25Y-3.2461
X4.2677Y-3.878
X4.2756Y-3.0153
X4.2795Y-4.2677
X4.2815Y-4.6004
X4.2854Y-3.311
X4.2854Y-3.9783
X4.2913Y-5.3546
X4.2953Y-4.4016
X4.2972Y-3.6457
X4.2992Y-3.0332
X4.2992Y-5.3799
X4.3031Y-4.2165
X4.3091Y-3.5531
X4.3307Y-3.7283
X4.3307Y-4.2402
X4.3307Y-4.3543
X4.3307Y-4.437
X4.3406Y-5.3799
X4.3425Y-4.9291
X4.3701Y-4.0492
X4.3784Y-5.0217
X4.3819Y-4.374
X4.4016Y-4.2441
X4.4193Y-3.6575
X4.4567Y-5.0197
X4.4646Y-3.9764
X4.4803Y-4.3386
X4.4843Y-3.748
X4.5098Y-5.0
X4.5276Y-5.0492
X4.5512Y-4.9921
X4.5512Y-5.0236
X4.5551Y-3.8228
X4.561Y-4.1535
X4.563Y-5.3484
X4.565Y-2.3209
X4.5709Y-5.0079
X4.5906Y-4.9921
X4.5906Y-5.0236
X4.6024Y-3.9764
X4.6024Y-4.5354
X4.6159Y-2.9218
X4.6159Y-2.9902
X4.6244Y-5.4222
X4.6629Y-2.5098
X4.6668Y-3.0295
X4.6811Y-5.3268
X4.6826Y-2.8563
X4.6826Y-2.8917
X4.6969Y-2.3445
X4.7141Y-2.5098
X4.7318Y-3.0295
X4.7575Y-3.2104
X4.7613Y-2.8287
X4.7633Y-2.9961
X4.7653Y-2.5098
X4.7928Y-2.9626
X4.7968Y-3.0295
X4.7968Y-3.0551
X4.8031Y-4.5591
X4.811Y-5.2303
X4.8145Y-2.5098
X4.8204Y-2.752
X4.8553Y-5.1811
X4.8775Y-2.4843
X4.8873Y-2.7283
X4.8937Y-4.6437
X4.8952Y-3.0059
X4.8976Y-5.2308
X4.9272Y-4.6831
X4.9291Y-4.5984
X4.9409Y-3.311
X4.9409Y-3.3425
X4.9542Y-3.0748
X4.9621Y-2.7087
X4.9621Y-2.7677
X4.9665Y-4.6378
X4.9724Y-3.3209
X4.9724Y-3.3504
X4.9897Y-2.6417
X4.9916Y-3.0059
X4.9961Y-4.5591
X4.9975Y-2.9252
X4.9975Y-3.1142
X5.0Y-4.685
X5.0Y-4.7677
X5.0276Y-4.5236
X5.0276Y-4.5945
X5.0276Y-4.7047
X5.0487Y-2.4055
X5.1058Y-2.4035
X5.1097Y-2.7362
X5.1097Y-2.9252
X5.1097Y-3.1142
X5.126Y-4.5591
X5.1583Y-2.0638
X5.2205Y-4.685
X5.2461Y-4.6831
X5.248Y-4.5098
X5.2638Y-4.7047
X5.2874Y-4.5866
X5.2894Y-4.5531
X5.3327Y-4.8071
X5.3346Y-4.7815
X5.3346Y-4.8327
X5.34Y-5.0497
X5.3406Y-5.1915
X5.341Y-2.4601
X5.341Y-2.531
X5.3504Y-5.0217
X5.3563Y-5.0827
X5.3568Y-2.6058
X5.3765Y-2.7712
X5.378Y-5.1122
X5.3844Y-2.8578
X5.4405Y-3.435
X5.4444Y-2.4956
X5.4445Y-3.3201
X5.4449Y-4.4449
X5.4449Y-4.4744
X5.4469Y-4.5039
X5.4552Y-2.6294
X5.4641Y-3.4685
X5.468Y-3.1732
X5.468Y-3.2283
X5.468Y-3.2874
X5.4744Y-4.4508
X5.4744Y-4.4803
X5.4744Y-4.5079
X5.4749Y-2.8538
X5.5102Y-2.465
X5.5546Y-3.1929
X5.5546Y-3.252
X5.5591Y-3.5157
X5.5684Y-2.6339
X5.5693Y-3.7039
X5.5743Y-3.3622
X5.5743Y-3.4213
X5.5851Y-2.6137
X5.5866Y-2.5871
X5.5866Y-3.5157
X5.6363Y-2.8578
X5.6378Y-2.9331
X5.6378Y-2.9921
X5.6599Y-2.5349
X5.6757Y-2.6058
X5.7083Y-3.088
X5.7111Y-2.5231
X5.7283Y-3.065
X5.7283Y-3.3504
X5.7283Y-3.3799
X5.7323Y-3.1378
X5.7751Y-3.2205
X5.7869Y-3.1811
X5.8066Y-2.5157
X5.811Y-3.0394
X5.8386Y-3.0394
X5.9724Y-3.1516
X5.9783Y-3.1299
X5.9961Y-3.1516
X6.002Y-3.1299
T2
X3.2863Y-2.7969
X3.3349Y-2.8574
X3.3466Y-2.7366
X3.3932Y-2.7991
X3.4069Y-2.6763
X3.4516Y-2.7408
X3.4672Y-2.616
X3.5099Y-2.6824
X3.5275Y-2.5557
X3.5682Y-2.6241
X3.5878Y-2.4954
X3.6266Y-2.5658
X3.6481Y-2.4351
X3.6849Y-2.5074
X3.7084Y-2.3748
X3.7432Y-2.4491
X3.7687Y-2.3145
X3.8016Y-2.3908
X3.8149Y-2.9361
X3.8466Y-2.7959
X3.8599Y-2.3324
X3.8707Y-2.8802
X3.9033Y-2.7391
X3.9265Y-2.8244
X3.9454Y-2.3324
X3.9601Y-2.6824
X3.9823Y-2.7686
X4.0169Y-2.6256
X4.0286Y-3.1869
X4.0308Y-2.3324
X4.0314Y-1.9213
X4.0381Y-2.7128
X4.0667Y-3.0628
X4.0737Y-2.5688
X4.0939Y-2.657
X4.1682Y-2.0687
X4.1682Y-2.4056
X4.1704Y-3.1129
X4.1715Y-2.6864
X4.1715Y-2.7717
X4.1715Y-2.857
X4.1772Y-3.0628
X4.1872Y-2.4553
X4.2017Y-2.3324
X4.2055Y-2.5454
X4.244Y-2.3985
X4.2613Y-2.4896
X4.2872Y-2.3324
X4.3159Y-3.0807
X4.3171Y-2.4338
X4.372Y-3.3618
X4.373Y-2.378
X4.3972Y-3.0807
X4.3977Y-3.0088
X4.43Y-3.4197
X4.4565Y-2.378
X4.4784Y-3.0807
X4.4879Y-3.4777
X4.5389Y-5.3087
X4.54Y-2.378
X4.5459Y-3.5356
X4.5684Y-2.8379
X4.5684Y-2.92
X4.5684Y-3.002
X4.6039Y-3.5936
X4.6618Y-3.6516
X4.7198Y-3.7095
X4.7201Y-3.1395
X4.7598Y-3.7762
X4.7598Y-3.8582
X4.7598Y-3.9401
X4.7598Y-4.0221
X4.7598Y-4.1041
X4.7598Y-4.186
X4.7598Y-4.268
X4.7598Y-4.35
X4.7728Y-5.3087
X4.7957Y-4.3858
X4.8224Y-3.1395
X4.8493Y-5.3228
X4.8784Y-4.3858
X4.9141Y-3.168
X4.9148Y-3.2703
X4.9304Y-5.3228
X4.9611Y-4.3858
X5.0115Y-5.3228
X5.0438Y-4.3858
X5.0654Y-3.3122
X5.0925Y-5.3228
X5.1265Y-4.3858
X5.1487Y-3.3122
X5.1736Y-5.3228
X5.2092Y-4.3858
X5.2321Y-3.3122
X5.2547Y-5.3228
X5.272Y-4.4369
X5.2933Y-3.2717
X5.2964Y-3.3765
X5.3304Y-4.4954
X5.3357Y-5.3228
X5.3497Y-3.3281
X5.3606Y-3.4408
X5.3889Y-4.5538
X5.406Y-3.3844
X5.4166Y-5.3209
X5.4474Y-4.6123
X5.4729Y-5.2638
X5.4744Y-4.6851
X5.4744Y-4.7678
X5.4744Y-4.8505
X5.4744Y-4.9332
X5.4744Y-5.0159
X5.4744Y-5.0985
X5.4744Y-5.1812
X5.6916Y-2.2403
X5.7323Y-3.6909
X5.7474Y-2.296
X5.8031Y-2.3517
X5.8111Y-3.6909
X5.833Y-3.6319
X5.8813Y-3.6672
X5.9106Y-3.5543
X5.9145Y-2.4632
X5.937Y-3.6114
X5.968Y-2.5206
X5.9697Y-2.5992
X5.9697Y-2.678
X5.9697Y-2.7568
X5.9697Y-2.8356
X5.9697Y-2.9144
X5.9697Y-2.9932
X5.9697Y-3.072
X5.9697Y-3.2297
X5.9697Y-3.3085
X5.9697Y-3.3873
X5.9697Y-3.4661
X5.9697Y-3.5449
T3
X3.3622Y-3.8622
X3.3661Y-3.311
X3.4528Y-3.8858
X3.4567Y-3.9882
X3.9173Y-3.1575
X4.0315Y-3.2362
X4.1142Y-3.2362
X4.2323Y-4.5531
X4.3228Y-4.5669
X4.3543Y-3.685
X4.3878Y-3.626
X4.4961Y-4.6161
X4.5709Y-4.9528
X5.0482Y-2.5615
X5.2269Y-2.6063
X5.4198Y-2.8342
X5.6294Y-2.4956
X5.6599Y-2.8184
X5.779Y-3.5039
X5.7827Y-2.9134
T4
X2.9657Y-3.2394
X3.0657Y-3.2394
X3.0807Y-1.9035
X3.0807Y-2.0035
X3.0811Y-2.1476
X3.0811Y-2.2476
X3.1807Y-1.9035
X3.1807Y-2.0035
X3.1811Y-2.1476
X3.1811Y-2.2476
X3.2807Y-1.9035
X3.2807Y-2.0035
X3.2811Y-2.1476
X3.2811Y-2.2476
X3.3807Y-1.9035
X3.3807Y-2.0035
X3.3811Y-2.1476
X3.3811Y-2.2476
X3.4807Y-1.9035
X3.4807Y-2.0035
X3.4811Y-2.1476
X3.4811Y-2.2476
X3.5807Y-1.9035
X3.5807Y-2.0035
X3.5811Y-2.1476
X3.5811Y-2.2476
X3.6807Y-1.9035
X3.6807Y-2.0035
X3.6811Y-2.1476
X3.6811Y-2.2476
X3.7807Y-1.9035
X3.7807Y-2.0035
X3.7811Y-2.1476
X3.7811Y-2.2476
X3.8807Y-1.9035
X3.8807Y-2.0035
X3.8811Y-2.1476
X3.8811Y-2.2476
X3.9807Y-1.9035
X3.9807Y-2.0035
X3.9811Y-2.1476
X3.9811Y-2.2476
X4.0807Y-1.9035
X4.0807Y-2.0035
X4.0811Y-2.1476
X4.0811Y-2.2476
X4.1807Y-1.9035
X4.1807Y-2.0035
X4.1811Y-2.1476
X4.1811Y-2.2476
X4.2807Y-1.9035
X4.2807Y-2.0035
X4.2811Y-2.1476
X4.2811Y-2.2476
X4.3807Y-1.9035
X4.3807Y-2.0035
X4.3811Y-2.1476
X4.3811Y-2.2476
X4.4807Y-1.9035
X4.4807Y-2.0035
X4.4811Y-2.1476
X4.4811Y-2.2476
X4.5807Y-1.9035
X4.5807Y-2.0035
X4.5811Y-2.1476
X4.5811Y-2.2476
X4.6807Y-1.9035
X4.6807Y-2.0035
X4.6811Y-2.1476
X4.6811Y-2.2476
X4.7807Y-1.9035
X4.7807Y-2.0035
X4.7811Y-2.1476
X4.7811Y-2.2476
X4.8807Y-1.9035
X4.8807Y-2.0035
X4.8811Y-2.1476
X4.8811Y-2.2476
X4.9807Y-1.9035
X4.9807Y-2.0035
X4.9811Y-2.1476
X4.9811Y-2.2476
X5.0807Y-1.9035
X5.0807Y-2.0035
X5.0811Y-2.1476
X5.0811Y-2.2476
X5.1807Y-1.9035
X5.1807Y-2.0035
X5.1811Y-2.1476
X5.1811Y-2.2476
X5.2807Y-1.9035
X5.2807Y-2.0035
X5.2811Y-2.1476
X5.2811Y-2.2476
X5.3807Y-1.9035
X5.3807Y-2.0035
X5.3811Y-2.1476
X5.3811Y-2.2476
X5.4807Y-1.9035
X5.4807Y-2.0035
X5.4811Y-2.1476
X5.4811Y-2.2476
X5.5807Y-1.9035
X5.5807Y-2.0035
X5.5811Y-2.1476
X5.5811Y-2.2476
M30
